<svg xmlns="http://www.w3.org/2000/svg" viewBox="0 0 446.46 104.14"><defs><style>.cls-1{fill:#1670c4;}.cls-2{fill:#fff;}</style></defs><title>Asset 1</title><g id="Layer_2" data-name="Layer 2"><g id="Layer_1-2" data-name="Layer 1"><circle class="cls-1" cx="52.07" cy="52.07" r="52.07"/><path class="cls-2" d="M77.12,36.23,77,37.28l-.39,2.51-.27,2.37.53,2.37-.27,1.71L76.53,48l-.2,2.44.27.93.06,4,.06,1.26-.13,1.18.13,2.71.2,1.25-.13,1.13-.14,2.77-.27,2.45.14,1.71.13,2.25.14,1.12L75.07,75H73.75l-2.5.26H70l-1.26.2-2.25-.33-1.25-.06L64.18,75l-2.7-.52.14-3.77-.33-1.18.06-1.59-.33-2V64.48l-.33-1.26.46-2.78-.06-4,.06-1.18L60,57.48l-.8.8-.39,1.18-1.38,2-1.32,2-2.45.33-3,.6-2.44-.93-1.52-2-.92-.79-1.32-2.11-.93-2.25-.33-.93-.39-.79-.86-.07V55l-.39-.72-.66-.47-.33.8.6.66.79-.2-.13,1,.85.06.53-.72.27.79-.2,1.13-.33,3.16L42.47,62l.26,2.31.47,1.19-.27,1.38-.13,1.52.06,2.44.06,2.51-2,1.78-1,.33L36.39,75,34,75.3,33,75.24l-1.45-.06-2.45.06-1.18-.6-.27-1.18.13-2.58-.39-2.64L27,65.34l.6-2.25-.47-2.64.14-1.25-.07-1.52.2-2.37.06-1.46.2-2.57.06-1.19-.53-2.51L27.29,45V43.43l.13-1.05-.13-2.71.13-1-.13-1.38.13-1.38.06-1.38.27-1.38.2-3.63,2.24-.4,1.46-.33,5.47.47,1.06-.06,1.25-.33,1.92.59,1.19,1.46,1.26,2L45.63,36l1.65,2.12.6,1.12.72,2,.8.86.72,1.38,2,3.24.46-.93L53,44.68l1.58-2.31,1.26-2.45,1.26-2,1.52-1.71L59.56,34,61,31.81l.46-1,3.1-2,1.46-.2,2.17.6,1.65-.2,1.13.27L72.24,29l3.9.2.52,2.44L76.72,35ZM73,29.5,72,30l-.39.27.33.2.6.39.13.46-.27.27-.33.79-.19.47.46.66-.13.85.6.53.66-.27V35l.39-.27-.53,1.52.86.66.13-.06.47.06.26.72,1-1.26L75.21,36v-.6l-.33-.19.13-.39-.33-.33-.06-.33-.39.06.06-.39-.53-.33.27-.33.39.19.8-.52-1.65-.86-.14.66-.13-.46.13-.33-.19-.53-.14-.39.33-.72Zm-34.12.79-.33.46-.27.53.85.39.33-.46-.06-.93H39l.8-.6-.66.06ZM37.52,30l-.93.06-.47.8.47.79h.93Zm-7.73,2.77.06.66h.4l-.93.2.66.66.93-.2L31,33.2l-.06-.53-.4-.19.33.13.6-1.52-1.12-.13-.47-.27v.6l.14.93.33.13Zm5.75-1.84-.2.79.06.14.53.13-.2-.39Zm33.13.6-.6.19-.13.66,1.26-.46.19.72,1.46-.39-.27-.86-.8-.19-.59.72Zm-29.44.33h.33l.33-.6-.8.6.2.52Zm1.78.13-.27-.39-.46.06Zm-6.93-.06-.39-.27-.46.2.85.59Zm-1.38.52-.6-.66.14.53-.86-.6-.06.86,1,.33.06.33Zm5.55-.66-.47.2-.06.53.39.26-.06.6.8.72-.2-.79-.39-.13-.14-.4Zm2,.47-.33.19-.14.6.4.53h.52l.33-.2-.06-.39.33-.66-.93-.39Zm-1.85.13.53-.13-.06-.33Zm4.16-.06-.47-.33-.59.2Zm-5.55,0-.46-.2-.47.33Zm-1.52,1.26L35,32.33l-.13.72Zm2.05.79.85-.33-.79-.39-.06-.72-1.52.6H35.6l.33.59L37,34l-.2.47.53-.33-.06.39.46.33Zm5.54-.85-.46-.4-.66.2Zm27.59.46h.46l-.46-.79-.27.39Zm-33-.06-.27-.39.2.13Zm-6-.33-.53.72.27.53-.13.66.26-.33.33-.4.6.2-.19-.53.39-.26-.39-.6ZM70,33.72l-.39.66.33.73Zm-34.45.07h-.4l.6.33Zm-.73.72-.66-.66-.13.39.27.39Zm4.49-.27v.6l1.05-.53L39.89,34Zm4.62,2-1,.14.6-.47-.93-.46.39-.6-.39-.72-.6-.06.39,1-.52.46-.06.66-.4.39L41.34,36l-.27.66h-.33l.2-.46-1.05-.53.27-.33L38.37,35l.27.86.66.19.06.8.53.33.79-.47.33.14-.27.52.66-.33.47.86-.53.27.86-.27-.06.46-.53.27-.2.93.07,1.65.52.33V40.46l.06-.66.07-.47h.59l.6-1,.27.66-.86,1,.66.6.93-.27V39h.39l.27-.59-.33-.53h-.39v-.33h-.53L43.65,37l-.52-.19.33.06ZM34,34.19l-.86.27-.66.52.6-.06-.2.46.33.4.93-.66-.52-.33.13-.14Zm7.59.79H42l-.6-.46Zm-4.76.47-.26.33-.73.13.2,1.26.93.52-.27.66.72-.66.47-1.25-.33.06.26-.39-.33-.73.27-.33-.33.14-.19-.6Zm-1.45.13.39.13L36,35l-.39-.13-.39.27Zm32.87-.13-.14-.53-.27.86Zm-39-.14L29,35h-.33Zm.47.53.33.46.85-.52-.33-.53-.59.06Zm43-.53-.33.33.93.2-.14-.47Zm-2.91,0-.33.6-.39.2v.66l-.27.39.66.79-.39.39.72.2.27-.27.72-.13.27-.66-.86-.72.53-.47-.2-.72Zm-38.41.47v.72l-.47.79v-.46l-.33.52.2,1.13.66-.06.2-.86.33.2-.33-.6-.07-.53L32,36.5l.13-.53-.39-.33Zm39.6.79.39-.33-.06-.53Zm-3.63.06-.06-.72-.2.39Zm-32.74.06.46-.33h-.33ZM68,36.83l-.39-.06-.06.72.39.06.27-.33Zm-35.11,2,.06-.79.27-.4-.33-.79-.4,1-.26.2-.53.19-.06.93.52,1.05.07-.6L33,39.4Zm5.28-1.78-.14.33-.33.19-.13.27-.27.6h.33l.06-.47.33.2.72-.39.86.27.13-.47-.33-.39-.52.06-.06.14h0l-.2.33.2-.33Zm-4.69,1.38.4-.14.13-.46-.33-.33-.6.6Zm13.07-.6-.72-.2-.6.53,1.52.46Zm20.66.2-.47-.33-.19,1.12.52-.2Zm-38-.14-.66.27-.06.72.6.47.72-1.06Zm10.89.47-.72.52,1.59-.13-.66-.33h.33l.2-.39Zm32.54-.07-.13,1.19h-.8l1.13.72-.2-.46.72.06.47-.66-.33-.79ZM34.47,40l.73.07-.73-.47L34,38.74l.27.92-.2.07-.19-.53-.53-.06-.33.39.27.46.52.53.4.79h-.66l-.33.6,1,.53.33-.53-.27-.52.52.72.93-.14.33-.85-.52-.2.13-.52L35.6,40l-.33-.13.06.46h-.93Zm29.12-1-.73-.06-.39.66h1.46Zm4.22.33-.19.86.6.6.39-1.65Zm-31.55.47-.6-.6-.86.27Zm29.83-.2-.66-.13-.13,1.12.66.14.39-.53ZM36.26,41.18l.79-.27.2-.66.33.33.33-.33-.06-.46-.47-.14-.6.27.2.53Zm4.62-.33.27-.39-.2-.39L40.49,40Zm-10.17.27-.27-.8-.79-.13Zm42.84-.8-.14.33.47-.33Zm-3.24,0-.86.27.53.14Zm-38.74.4.66-.2-.8-.2Zm13.86.39H45l-.26-.39h-.53l.33.33-.13.66-.27.85.72-.19,1.05.26.47-.06L46,43l.66.59h.86l.06.4-.66-.2-.39-.2-.39.27.46.47,1.13.33.06.59.72-.59-.13-.93-.53-.2.53-.39-.47-.2.06-.59-.52-.4.19-.85-1.12.19-.2-.39.14-.39-.66.53Zm-5,.6.46-.47-1.26-.33.2.66ZM73.82,41l.59,1.13.07-.72Zm-5.94.27-.53.33v.6Zm-24.29.2-.13.52.59-.66Zm-6.14,2.5.8.14.46.19.47-.39.52-.33v-.72l-.19-.39L39,42.5V42l-.6-.39-.59.33.39.86-.47-.27-.52.27v.6l.93-.53-.33.66.13.06ZM72.1,42.17l.4-.2v-.39Zm-10.89-.53h-.92l-.47.8.47.79h.92V42.7l.66.06-.66-.47Zm12.48.07-.66.06-.6.33-.06.72.6.39.39-.46.72-.47ZM43.46,42.89l.39-.39-.72-.72-.4.39.14.6Zm-10.56,1,.19-1.18v.46l1.13.06v-.66l-.66-.27-.66-.52-.07.72-.46.27-.06.72Zm31.88-1.05V42.3L64.31,42l-.47.19ZM42,42.11l-.52.46,1.25-.13Zm-.6.33-.13-.33h-.33v.6Zm-9.64,2.25.14-.86.66-.06-.8-.33-.33.27.6-1.32-.93.06-.39.85.39.6-.46.27.39.6h.72l.2.52Zm3.77-.86.39-.6.72.2-.2-.72-.72-.27-.52.46h-.47l.06.66.53.39.13.33Zm39.67.93.27-.72.46-.53-.2-.79-.79-.14.13.93ZM62.66,43.55l.39.86,1.05-1.52-.93-.06Zm-18.15-.06.13-.39-.72-.27-.13.39.26.39Zm-3.24-.6h-.93l-.52.72.46.86.46-.27.93-.46Zm15,.39h-.39l-.39.47.2.52.66-.13.33.33L56.92,43Zm11.16-.13L67.08,43l.39.46ZM66.75,43l-1.05.39-.46.39.13.6.39-.33.2.33h.79l.39-.72Zm-3,.52.27.39h.46l.2-.46-.2-.39ZM43.79,51.61l.39.59,1.05-.72-.46-.6h-.47l.14-.72v-.72l-.2.33-.13-.66-.73-.33.53-.53.53.27.33-.27-.4-.52-.33.19-.19.07.33-.8.33.27.72-.13.27-.47.66.06.06-.52.79.52-.26-.52-.47-.27-.66-.46-.39.06-.66.46-.53.2-.33.52-.26-1.18L43,45.8l.47-.39-.4-.93-.19-.86-.47-.46-.59.06.13,1.13.39.19-.27.53L41.48,45l-.07.26-.33-.39.14-.33-.6.06-.13.33-.4-.46-.19-.53-.66.27v.33H38.9L39,45.6l.6-.06.46-.46.33.06.47.27.06.6-.53.26-.46.27-.14-.27-.52-.33-.6.4.53.46-.2.33.6.46-.14,1.06,1-.27-.06-1.13,1.38-.19-.06-.47.47.2L42.33,48l.47-.14h0l.52-.13-.52.13.39.14-.53.52.2.73.52.72.2,1.38.39-.33Zm26.86-8,.33.14.33-.2-.72-.33Zm-1.92-.33h-.46l-.2.4.2.39.72-.33ZM38,43.55l.06-.06.39.2Zm34.85,0-.6.14-.2.52.33.47.8-.66Zm.72.39.52-.19-.66-.14Zm-29.24.66.47-.72-1.72-.06.4.79Zm.33.73.33-.07.86.27.6-.6-.27-.85-.8-.2-.19.6-.72.13-.93.2,1.05.39-.46.06-.2.4Zm25.55.39L69.6,44l-.6.66.27.92ZM57.65,44.54l-.4-.52-.52,1.18.66-.06Zm-19.88.93.4.06.39-.13.06-.39-.33-.2-.39-.06v-.33l-.33-.2-.14.47-.13.39Zm-2.64-.72.33.46h.6l-.66-1Zm24,.19.47.73.46.13.53-.53-.93-.85Zm-.06-.19-.79-.06-.47.66.33.72.8.06ZM55.53,45l-.39-.2-.39.27.06.46.79-.06Zm11.82-.2-.6.6.2.66-.6-.14-.53.73,1.72.19-.4-.79,1-1.05Zm-31.29.06.47.27.33-.2Zm11,.06.07.66.33-.19-.07-.33ZM74.41,46.4l.8-.39v-.86l-1.32-.06h-.66l-.33.52.33.6Zm-39.47-.86.93-.06-.47-.27Zm32.61.66.52.2.47-.39-.14-.6Zm-3-.19.46-.07.2-.39Zm-27.2.52.39-.06.4-.13L38.1,47l.47-.6-.27-.8-.13.66-1-.33-.4.27v.47Zm-1-.33-.33-.33.2.8Zm22.38,0-.06.33.39-.39Zm13.27,1,.27.39.33-.06.2.27.85-.13.27-.86H73L73,46.13l-.33.27-.06.27Zm-42-.52-.93.26L29.4,48l-.46-.14.33,1.32.46-.46-.06-.33.85-.47.66-.19.33.39.14.13.33.93,1.18-1.38-.85-.2-.33.33-.33-.85-.2-.86-.6.6.33.79-.33-.06-.33.39.14-.66Zm34.32-.47.39.66V46.4Zm-30.1.06-.47.4,1-.2Zm21,1.19.66-.13.27-.6-1.05-.47-.27.66ZM47.42,48l.85.13.27-1.59-.93-.13-.52.72.13.46-.06.6.46.39h-.79l.06,1.52-.93.53.06.52.66-.46.33.66.93.06-.66-1.32h.39l.4-.72-.4-.8Zm22.63-.8-.66-.27-.66.6.14.86.39-.14.46,1.32L69,49.3l-.66.52.27.53.06.33.6.27.66-.53-.06-.53.46-.72-.2.39.47.53.66-.13-.33-.14.39-.27-.6-1.18H71l-.72-.27v-.66l.46-.13-.19-.86-.53.13Zm-12,.27.39.13.2-.79-.47-.13-.66.52.39-.06Zm6.27,0,.33.86,1.12-1.46-.93-.13ZM40,46.79l.27.39-.46.2Zm16.83.53-.27-.4L56.66,48l.39-.27Zm-6.54-.4-.46.2v.46Zm-14.19.14-.66.79.53-.19Zm15.18.52L51,47.12h-.59Zm17.1-.13v.33l.33-.46Zm-31,1,1.06.46.33-.66-.47-.59-.72.06-.39.79-.6-.19.53.26-.14.33.39.6.73-.06Zm17.3-.6-.39-.19-.4.26.2.66.27.73.72.13.46-.53-.66-.59.2-.33-.33.19Zm13.2.53.27-.72-1.52.19.46.6Zm-33.4-.06.52-.6-.46.19Zm21.71-.53-.39-.06.53.46Zm17.89.6-.2.79,1.65-.46-.66-.6-.53.2-.52-.4-.39-.19-.66.46.72.33.06-.39Zm-27.47-.6-.59.79.52-.26Zm5.75,1.05.93.14L52.1,48ZM35.4,48h-.6l-.26.52.26.53.6-.06Zm37.17,0-.6.19-.39.53.46-.06.33.27Zm-33.66.06-.06.86.72.46Zm9.24.33.39-.27-.79.06ZM73,48.77l.39.27L73,48.31Zm-22.84-.2-.06,1.13-.2.46.72-.52-.06.33.72.66.33-1.72h.8L52,48.31l-.66.06-.14.52-.46-.13Zm-8,1.26.59-.19-1-.86-.13.66Zm24.35,3.11.2-.14.33.14-.06.39.33.39.27-.86.33.27.79-.39-.13-1h.39L67.88,51v-.86l-.8-.39-.19-.14-.47-.19L66,48.84l-.46.33.19.66v.66h.86l-.27.47.72.39.66-.33.2.46-.66,1L67,52l-.47.27-.39.66ZM31,48.84l.33.72.06-.46Zm8.64,1,.53.2-.14-.6-.33.06Zm-2.25,0-.06-.39-1.26.39.47.72.46.27.53-.39Zm.72-.19-.39-.14.06.8L38.1,50Zm26.6-.14-.39.53.27.6Zm9.77.14-.93-.07.72.47-.39.6.39-.2V50l.6.46Zm-13.6.19-.19.6,1.18-.27-.39-.46ZM72.17,51l-.47.46-.33-.6h-.66v-.39l-1.05.39.46.39.4-.13-.27.33,1.59.13v.73l-.4-.07-.19-.52-1,.06-.39-.33-.53.27.06.6-.06.59-.2.73.4.52-.73-.46-.06.85.66.4-.79.92h1.05l.46-.59L70,54.78l.86.33-.4-.46-.13-.14.46-.52-.46-.47.33-.39.46.47L71,54l.46-.39.86-.33.33-.66-.13-.86L72.36,51l.2.33h.66l.46.52.66-.13-.66-.93.06-1-.66.06h-.52l-.8.66ZM52.83,50l-.27.39.14.39.59-.72Zm2.58,1,.13-.6L55.07,50l-.27,1.12ZM54.21,50l-1,.46-.39.27.66.53-.46,1,.72-.53L53.62,51l.14.19.06.33.33.14-.39.13-.14,1,.66.33.6-.46-.06-.72-.33-.47-.13-.13.26-.27Zm-20.53.52H33l.66.53h.53l.26-.46-.26-.47Zm-2.77,1.06-.27-1.06-.39.4.13.46Zm10-.27.85.33.86-.53-.33-.46-.66.06-.79-.13Zm24.69.06.33-.27v-.33l-.73.06.07.4Zm9.31-.33L74.41,51l-.26.39.85.27ZM39.5,52.67l.52-.8-1.84-.13.19.39-.27-.39L38,51.21,37.58,51l-.47.33.07.52.52-.06.2.47.66.33.72.46Zm-7.33-1.32L32.1,52l1.19-.6-.53-.33Zm14.33-.14-1.05.47.46.33.53-.2Zm9.9.53-.2-.33-.33.72h.39l.33.2.4-.14.06-.46Zm-22.51-.27.46,1.79.46-.4-.92,1.39,1.05.06.79-.14L35,53.92l.27-.4L35,52.6l-.2-.86Zm19.33.06-.6-.06-.06.33.6.06Zm8.85,1.32.86-1.32h-.8l-.46.66Zm-15.31-.92.26.39h.47l.19-.39-.66-.4Zm19.27,0-.39.46,1-.39Zm7.26.72.06-.33-.6-.06Zm-30.56.93.73-.33.06-.8-1.38-.13-.07.79ZM50,53v.46l.33.14.6.13.33-1.19-.66-.19Zm15.51-.14.4-.33-.53-.19ZM31,53l.19-.6-.79.72Zm32.94-.2h.46l-.72-.39ZM32,52.6h-.46l-.2.39Zm8.85.39.13.46.39.14-.19-.93Zm33.93,1.12.66-.06.33-.66-.4-.6-1.05.72ZM57,53.06l-.33.79,1.71-.26-.53-.66ZM72.3,54.51l-.06.33.46.6.39-1,.47-.06.19-.27v-.6l.53.27v-.52l-1-.33-.72.33-.39.59v.33Zm-34.06-.13,1.38-1L38.84,53l-.66.52Zm9.57-.66-.06.46.79.14-.06-.53.06-.33-.39-.39.06.53Zm15.51-.13-.14-.47-.46-.06-.2.72.47.14ZM53.09,54.78l.13-1.59-.72.33-.06.8Zm-17-.85.4.59h.72l-.06-1.25h-.73ZM65,53.79l.46-.52-1.18.39Zm-6.14.39.53-.19-.14-.33-.33-.06Zm-4.62-.39.86.8-.2-.66Zm6.47.06-.47.6,1.19-.52Zm-14.46.73.33-.53H45.37l.27.53Zm17.29.26-.19-.59-.53-.2.27,1.19Zm11.42-.72-.6.2-.52.13.46.39.53-.13ZM62,54.18l-.6.33.6,1,.52-.33.07-.66Zm4.35,2.18.33-.66-.2-.39.27-.47-.39-.66L65.9,55h-.47l-.33.72Zm1.59-2.11-.8.33L67.68,56l.79-.33.14-.86Zm-35.18.06-.72.33v.79l1.38-.72Zm18.75,1.45.06-.33L52,56l.33-.86-.66-.72-.86.2.39.46Zm9.18-.52.39-.14.06-.39-.33-.27Zm-23-.53.46.6.73-.14.19-.66ZM75,54.84l-.33,1.59.72-.27.2-.72Zm-34.26.8.93.13-1.32-.93Zm12.74-.27.46-.46-1.12.26ZM62.6,55l-.07.46-.19,1.32.85-.33.07-.6.52-.13-.46-.13Zm11.29.66.52-.14-.46-.26L73.56,55Zm-.2.27L73.49,55l-.2.46Zm-45.41-.6-.07.46.47-.66Zm12.47,1.18.07-.79-.66-.39Zm4.43-.66.27.33.39-.13-.2-.66-.33.06Zm12.34.4.39.59.73-.13-.14-1.26-.72.14Zm-8-.4L50,56l-.46-.47Zm1.84-.19.07.39.39.13Zm3.37,2.5.33.33.66-.19.19-.72-.46-.47-.66-.6-1.52-.79-.06.66.53.33-.33.2h.52l.66-.27Zm-19.14-.52L36.2,57l-.53-.8-.6-.26-.6.33.07.66-.73.39-.19.46.33.39.52-.06.2-.46Zm37,.39-.33-.6.39-.27-.06-.79L71.91,56l-.66.39L72,57.62l-.2.52v-.46h-.66l-.13.93-.53.46.47-.06.19-.13.66-.07v-.66l.47.14ZM32.76,56l.06.72.66.33Zm13.34.72.52-.13.2-.47Zm2-.39-.4.13-.06.4Zm22,.33.14.53.26.39.73-.27L71,57.09l-.6-.72Zm4.29.39.47.39.52-.19L75,56.36l-.6.2Zm-34.72,1-.6.6.2.86.52-.53.53.39.66-.13.33-.93-.27.13-.79-.26.06-.73-.6-.92.06.85.4.2ZM66,58.14l.52-.33.73.33-.4-.52.2-.33-.33-.47-.46.07-.33-.2-.47.66-.72-.06.27.46.6-.13Zm3.16.2.4.33.39-.66.19-.6-.06-.52-.46-.2-.27.6-.39-.06-.6.59,1.32.33Zm4.69-.79.26-.86L73,57.75ZM37,57.29l-.53-.53-.85,1,.52.47.73-.27ZM62.66,59l2-.6.19-.72-.52-.13-.47.39-.66.13-.06-1.18-.46.13-.39.06-.33.86.92.46ZM34.55,56.89,35,57l-.33.6-.2-.27Zm33.26.59.07-.46-.53.6Zm-38.48.73.66-.4V57Zm2.17-.73-.85-.33.33.4ZM53,59.4H51.64l.73.39L53,59.4l.13.6.2-.66.59.2.2-.66-.72-.4-.33-.79-.86-.06-.52.66Zm21.91,0,.39-.66L74.94,58Zm-7.46-.66-.19.33.72,1,.79-.39.33-.86-.59-.72-.53.47Zm-32.8-.6-.79.14-.33.72.52.46.66.47.8-.33.13-.86-.53.06Zm-3.3.66.33.6h.72l.39-.6-1.12-.66Zm19.8-.26h-.53l.4.52.59-.06-.33-.13ZM48.34,59l-.52-.13.72.59Zm17.82-.06H65.7l.66.39Zm-37.09.13.46.66.14-.33-.2-.33ZM65.9,60.32l.19-.6-.46-.46Zm-10.7-1-.33.33.14.46.66-.66Zm19.94,2.37.19-.13.86-.39.13-.93-.79-.53-.6.33-.79.2-.47-.2-.52.27.33-.2L73,59.46l-.72.14-.8,1.12-.33,1-.66.39.07.66-.4-.26-.46.52-.33.14-.06.46-.47-.2-.46.4-.39-.2-.66.46.52.66-.52.33.13.4,1.71-.4-.06.8-.6-.2-.26.14.06.66-.6.72-.33-.14-.53-.46.47-.93L67,65.54l-.8.66-1.25-.72.06.59-.39-.79.59-.06h.53l.27-.39.52-.07.27-.79-1.05.13.33-.46-.33.13-.39-.85.46-.06.39.19.4-.19v-.47l-.4-.52.93-.27.14.33.33.06-.07.33.73-.2.72.27.52-.46-1.05-.39.14-.4-.73-.59-.13.52-.6-.72-.46-.13-.6-.14.39.39-.33-.06-.46.72v.53l-.33-.06.27-.53-.27-.52v.39L65,60.65,64.91,62l.33.39-.2.33-.13.72-.33,1.52-.8-.2.33-.66.06.4.27-1L65,62.24l-.66.13L64,63l.39.53-.66-.33-.72.39.06.79.66.39-.33-.13.2.72.39.2-.33-.06-.2.46L63,65.8l-.53.52v.8l-.46.52.19.72.6-.19.27.39.33-.6-.72-.85.79.39.93.06.33-.13V67l.33-.66.6.53,1.18-.2.07.33-.66.6.79-.2.66.27-.6.2-.13.66.66.06-.27.66.93-.2.27-.85-.33-.39.26-.47.07-.06.52.79-.39.27L68.4,69l-.39.14-.06.33-.8-.2.4.39.39-.13V70l1.38-.92.46.52.66-.13.4-.66-.33-.47-.2-.66.39-.33.53.4.6-.27-.4-.39.53-.2-1-1.26.6-.33.52-.06-.06.66.86-.13.33.13-.53-.06-.39.46.2.53.39.06-.2.6.2.39h-.53l.47.93L71.77,69l.4-.59-.33.19-.27.53-.33.13-.2.33.2.72-.6-.19.39-.33L71,69.3l-.66.6-.72.27-.14.66-.33.06-.26.46.33-.19.19.46.2-.33-.14-.33.6.53h.33l-.66.13.06.8-.66-.47-.72.39v.8L69.46,73l-.06-.39.39-.19-.06.46.6-.46-.39.72,1.51-.66.66-.66-.13.52-.27.07-.33.59-.52.27.52.33-.39.33,1.32-.13.46-.93.93,1-.19-.79.85-.2L74.74,74l.47-.52.06-.66-.6-.27.06-.86.14.33.52-.13.33-.06.27-.86-.85.66-.4.06-.06-.39.14-.39-.33.06-1.06-.39.2.53-.86.19-.19-.33.13-.39-.06-.6.2-.39L73,69.1l.39-.6L73.16,68h.33l.13.66.2.8.72-.53.46-.6v-.79l.47-.72-1.39-.6-.26-.6,1.18.06-.52-.6.46-.13.06-.53.14-.66,1.12-.33-.6-.59-.85.26-.14.27-.72.06-.39.47-.6.79-.72.33-.53-.46-.27.33.14.46h-.93l-.39.86.52.72-.06.33L70,66.53h-.27l-.33.33-.06-.8.27.6.06-.52.53.06-.33-.72-.07-.27-.06-.8.27-.33h.6l-.14-.85.07-.47.59.27L71,62.63l.6-.06.2-.47.33.33.59-.59h0v-.14l.4-.33-.4.47.14.39.72-.47-.2.47.53-.39.33-.14-.06.33.66.14-.2.59.53-.13.13-.6h.39ZM55.6,60.59l.66-.2.14-.72Zm7.66-.72.33.52.39-.06.13-.39Zm-10.17.06-.39.52.19.6.66.06Zm17.1.39-.4-.27V61l.4-.2Zm-31.88-.06-.39,1.05.52-.39Zm-1.85.27-.52.52,1.18-.33Zm33.93,1.71-.13-1.46-.33.8ZM54.21,61.18l.06.52.47.14-.14-1ZM64,62l-.27.33.66-.27.14-.72-.33.39-.07-.52-.72.79Zm-13.53.66.79.39.8-.46-.86-1.32-.79.46Zm12.21-1.38-.79.06-.33.72.46.53.13.79.6-1.51-.6.46Zm-26.93.66.33.66.8-1.19-.72-.06Zm17.3.66,1.12.13.14-.66-.53-.39-.66.27Zm13-.33-.66-.14.33-.26Zm7.92.93.06-.53-.46-.39L73,63l.46.39Zm-33.66-.73-.93.07V63l.47.27.46-.33Zm23,.8.53-.8-1.46.73Zm5.48.19.06-.59.13-.33-.46.06-.53.19-.13.6.33-.06Zm-36.63-.79.66,1.59.52-.72-.33-.8Zm39.86,0-.66.39.6.33.72.47.07-.8ZM32,64l.27-.46L32,63h-.53l-.27.47Zm8.77-.13-.52.66L41.61,64Zm-7.06.66.66-.14L34,63.82l-.33.26ZM65.9,65.6l.92-.06-.19-.39h-.47Zm-34,2.31.66-.2.13-.66L32,66.79l-.53.06-.27.46.4.33Zm34,.39.59-.46L66,67.78l-.06-.86-.4,1.26Zm6.2-1.26-.52.14,1.05.46-.13-.27ZM34.68,68.51l.6.72.6-1.71-.86.13Zm29.5-.66-.39.19.39.73.4-.27V68ZM66,69.23l.27-.46-.2-.47-.6.93Zm4.23-.33-.86.13-.06-.52.66.19.46-.39Zm-30.36-.53-.14.33.2.33.39-.06.2-.33Zm26.53,3.57-.53.72.6.14.33-.33,1.71-.66-.66-.6-.92.33-.07.6-.26-.39-.07-.4L66,71.28l.79-1.38.4-.33-.2-.72-.13.27-.4-.66-.19.39.52.6-.33.39-.06-.53-1.12.2.06.66.53,1.05-.07.2-.52.26v.66l.52-.92ZM41.48,69l-.73-.39-.66,1.26.73.33.66-.39Zm23.76.14-.73-.4L63.78,70l.8.4L65.3,70ZM72,70l.39-.33.27.33Zm-4.23,1,.72.33-.33-.46,1.06-.47-.93-.26-.33.39-.33-.39Zm7.53,0,.06-.33-.6-.06Zm-11.68,0-.4.06.47.66.13-.39ZM40.95,72.14l.66-.33.06-.72-1.32.59Zm24,1.45v-.46l.33-1.26-.53.53.06.33-.46-.27.27-.53-.4-.13-.33.19.33.53L64.25,74Zm3.49-1.32.14-.46-.66.6ZM62.33,73l.19.8.86.27.6-.6-.2-.8-.33.07-.06-.4-.66-.13-.46.46Zm10.5-.19.26-.33.33.52Zm-4.62,0-.6.06.66.27Zm1.84,1.32h.33l.33-.47-.27.07-1.05-.33.33-.4-.72.53.13.53Zm-3.24.27.47-.2.33-.53-.33-.59-.86.06-.13.6v.33Z"/><path class="cls-2" d="M176.55,38.66l-.07,1L176.12,42l-.25,2.2.49,2.2-.25,1.59-.12,1.6-.19,2.26.25.86.06,3.73.06,1.16-.12,1.09.12,2.51.19,1.15-.12,1-.13,2.56-.25,2.27.13,1.59.12,2.08.13,1-1.6,1.71h-1.22l-2.32.24h-1.16l-1.16.19-2.08-.31-1.15-.06-1-.13-2.5-.48.13-3.49-.31-1.09.06-1.47-.31-1.89V64.81l-.31-1.16.42-2.57-.06-3.67.06-1.09-1.09,2-.74.74-.36,1.09L158.28,62l-1.22,1.83-2.27.31-2.75.55-2.26-.86L148.38,62l-.85-.73-1.22-2-.86-2.08-.31-.86-.36-.73-.8-.07V56l-.36-.67-.61-.43-.31.74.55.61.73-.19-.12.92.79.06.49-.67.25.73-.19,1-.31,2.93-.42,1.47.24,2.14.43,1.1-.25,1.28-.12,1.41.06,2.26.06,2.32L143,74.71l-.92.31-3.24-.49-2.26.31-.86-.06-1.34-.06-2.27.06L131,74.21l-.25-1.09.12-2.38-.36-2.44-.36-2.69.55-2.08-.43-2.44.13-1.15-.07-1.41.19-2.2L130.6,55l.19-2.38.06-1.1-.49-2.32.07-2.38V45.32l.12-1-.12-2.51.12-.92-.12-1.28.12-1.28.06-1.28.25-1.28.19-3.36,2.07-.37,1.35-.31,5.07.43,1-.06,1.15-.31,1.77.54,1.1,1.35,1.16,1.83,1.71,2.87,1.53,2,.55,1,.67,1.89.74.8.67,1.28,1.83,3,.42-.86.43-1,1.46-2.14,1.16-2.27L158,40.25l1.41-1.59.85-2.08,1.29-2,.42-.92,2.87-1.83,1.35-.19,2,.55,1.53-.19,1,.25,1.22-.31,3.61.19.48,2.26.06,3.11Zm-3.85-6.23-.86.48-.36.25.31.19.55.36.12.42-.25.25-.31.73-.18.43.42.61-.12.79.55.49.61-.25v.31l.36-.25-.49,1.41.8.61.12-.06.43.06.24.67.92-1.16-.79-.36v-.55l-.31-.18.12-.36-.31-.31-.06-.31-.36.06.06-.36-.49-.31.25-.31L174,36l.74-.48-1.53-.8-.13.61-.12-.42.12-.31-.18-.49-.13-.36.31-.67Zm-31.58.73-.31.42-.25.49.79.36.31-.42-.06-.86h-.31l.74-.55-.61.06Zm-1.22-.31-.86.06-.43.74.43.73h.86Zm-7.15,2.56.06.61h.37l-.86.19.61.61.86-.19.06-.79-.06-.49-.37-.18.31.12.55-1.41-1-.12-.43-.25v.55l.13.86.31.12Zm5.32-1.71-.19.73.06.13.49.12-.19-.36Zm30.67.55-.55.18-.12.61,1.16-.42.18.67,1.35-.36-.25-.8-.74-.18-.54.67Zm-27.25.31h.31l.31-.55-.74.55.19.48Zm1.65.12-.25-.36-.42.06Zm-6.41-.06-.36-.25-.42.19.79.54Zm-1.28.48-.55-.61L135,35l-.8-.55-.06.8.92.31.06.31Zm5.13-.61-.43.19-.06.49.36.24-.06.55.74.67-.19-.73-.36-.12-.13-.37Zm1.83.43-.31.18-.13.55.37.49h.48l.31-.19-.06-.36.31-.61-.86-.36Zm-1.71.12.49-.12-.06-.31Zm3.85-.06-.43-.31-.54.19Zm-5.13,0-.42-.19-.43.31ZM138,36.16l-.42-1.1-.12.67Zm1.9.73.79-.31-.73-.36-.06-.67-1.41.55h-.36l.31.54,1-.06-.19.43.49-.31-.06.36.42.31ZM145,36.1l-.42-.37-.61.19Zm25.54.42H171l-.42-.73-.25.36ZM140,36.46l-.25-.36.19.12Zm-5.56-.31-.49.67.25.49-.12.61.24-.31.31-.37.55.19-.18-.49.36-.24-.36-.55Zm35.49.18-.36.61.31.68Zm-31.89.07h-.37l.55.31Zm-.68.67-.61-.61-.12.36.25.36Zm4.16-.25v.55l1-.49-.42-.31Zm4.28,1.89-.92.13.55-.43L144.6,38l.36-.55-.36-.67-.55-.06.36.92-.48.42-.06.61-.37.36-.06-.61-.25.61h-.31l.19-.42-1-.49.25-.31-1.65-.31.25.8.61.18.06.74.49.31.73-.43.31.13-.25.48.61-.31.43.8-.49.25.8-.25-.06.42-.49.25-.19.86.07,1.53.48.31v-1l.06-.61.07-.43h.54l.55-.92.25.61-.8.92.61.55.86-.25V41.22h.36l.25-.54-.31-.49h-.36v-.31h-.49l-.06-.49-.48-.18.31.06Zm-9.22-2-.8.25-.61.48.55-.06-.19.42.31.37.86-.61-.48-.31.12-.13Zm7,.73H144l-.55-.42Zm-4.4.43-.24.31-.68.12.19,1.16.86.48-.25.61.67-.61.43-1.15-.31.06.24-.36-.31-.68.25-.31-.31.13-.18-.55Zm-1.34.12.36.12.25-.67-.36-.12-.36.25Zm30.43-.12-.13-.49-.25.8Zm-36.11-.13L132,37.5h-.31Zm.43.49.31.42.79-.48-.31-.49-.54.06Zm39.77-.49-.31.31.86.19-.13-.43Zm-2.69,0-.31.55-.36.19v.61l-.25.36.61.73-.36.36.67.19.25-.25.67-.12.25-.61-.8-.67.49-.43-.19-.67Zm-35.55.43v.67l-.43.73v-.42l-.31.48.19,1,.61-.06.19-.8.31.19-.31-.55-.07-.49.49-.12.12-.49-.36-.31Zm36.66.73.36-.31-.06-.49Zm-3.36.06-.06-.67-.19.36Zm-30.3.06.42-.31h-.31Zm31,.13-.36-.06-.06.67.36.06.25-.31Zm-32.5,1.89.06-.73.25-.37-.31-.73-.37.92-.24.19-.49.18-.06.86.48,1,.07-.55.73-.24Zm4.89-1.65-.13.31-.31.18-.12.25-.25.55H140l.06-.43.31.19.67-.36.8.25.12-.43-.31-.36-.48.06-.06.13h0l-.19.31.19-.31Zm-4.34,1.28.37-.13.12-.42-.31-.31-.55.55Zm12.1-.55-.67-.19-.55.49,1.41.42Zm19.13.19-.43-.31-.18,1,.48-.19Zm-35.2-.13-.61.25-.06.67.55.43.67-1Zm10.08.43-.67.48,1.47-.12-.61-.31h.31l.19-.36Zm30.12-.07-.12,1.1h-.74l1,.67-.19-.42.67.06.43-.61-.31-.73Zm-35.32,1.53.68.07-.68-.43-.42-.79.25.85-.19.07-.18-.49-.49-.06-.31.36.25.42.48.49.37.73h-.61l-.31.55.92.49.31-.49-.25-.48.48.67.86-.13.31-.79-.48-.19.12-.48-.06-.37-.31-.12.06.42H137ZM164,41.22l-.68-.06-.36.61h1.35Zm3.9.31-.18.8.55.55.36-1.53Zm-29.2.43-.55-.55-.8.25Zm27.61-.19-.61-.12-.12,1,.61.13.36-.49Zm-27.61,1.47.73-.25.19-.61.31.31.31-.31L140.2,42l-.43-.13-.55.25.19.49Zm4.28-.31.25-.36-.19-.36-.42-.07Zm-9.41.25-.25-.74-.73-.12Zm39.65-.74-.13.31.43-.31Zm-3,0-.8.25.49.13Zm-35.86.37.61-.19-.74-.19Zm12.83.36h-.37l-.24-.36h-.49l.31.31-.12.61-.25.79.67-.18,1,.24.43-.06-.37.43.61.54h.8l.06.37-.61-.19-.36-.19-.36.25.42.43,1,.31.06.54.67-.54-.12-.86-.49-.19.49-.36-.43-.19.06-.54-.48-.37.18-.79-1,.18-.19-.36.13-.36-.61.49Zm-4.58.55.42-.43L141.91,43l.19.61Zm30.85-.68.54,1,.07-.67Zm-5.5.25-.49.31v.55Zm-22.49.19-.12.48.54-.61Zm-5.69,2.32.74.13.42.18.43-.36.48-.31v-.67l-.18-.36-.43.06V44l-.55-.36-.54.31.36.8-.43-.25-.48.25v.55l.86-.49-.31.61.12.06Zm32.07-1.65.37-.19v-.36Zm-10.08-.49H161l-.43.74.43.73h.85v-.48l.61.06-.61-.43Zm11.55.07-.61.06-.55.31-.06.67.55.36.36-.42.67-.43Zm-28,1.09.36-.36-.67-.67-.37.36.13.55Zm-9.78.92.18-1.09v.42l1,.06v-.61l-.61-.25-.61-.48-.07.67-.42.25-.06.67Zm29.5-1v-.49L164.7,44l-.43.18ZM144,44.1l-.48.42,1.15-.12Zm-.55.31-.12-.31h-.31v.55Zm-8.92,2.08.13-.8.61-.06-.74-.31-.31.25.55-1.22-.86.06-.36.79.36.55-.42.25.36.55h.67l.19.48Zm3.49-.8.36-.55.67.19-.19-.67-.67-.25-.48.42h-.43l.06.61.49.36.12.31Zm36.72.86.25-.67.42-.49-.19-.73-.73-.13.12.86Zm-11.61-1.1.36.8,1-1.41-.86-.06Zm-16.8-.06.12-.36-.67-.25-.12.36.24.36Zm-3-.55h-.86l-.48.67.42.8.42-.25.86-.42Zm13.86.36h-.36l-.36.43.19.48.61-.12.31.31.24-1.34Zm10.33-.12-.31-.12.36.42ZM167,45l-1,.36-.42.36.12.55.36-.31.19.31H167l.36-.67Zm-2.81.48.25.36h.42l.19-.42-.19-.36ZM145.7,52.9l.36.54,1-.67-.42-.55h-.43l.13-.67v-.67l-.19.31-.12-.61-.68-.31.49-.49.49.25.31-.25-.37-.48-.31.18-.18.07.31-.74.31.25.67-.12.25-.43.61.06.06-.48.73.48-.24-.48-.43-.25-.61-.42-.36.06-.61.42-.49.19-.31.48-.24-1.09-.43.06.43-.36L145,46.3l-.18-.8-.43-.42-.54.06.12,1,.36.18-.25.49-.54-.06-.07.24-.31-.36.13-.31-.55.06-.12.31-.37-.42-.18-.49-.61.25v.31h-.31l.06,1,.55-.06.42-.42.31.06.43.25.06.55-.49.24-.42.25-.13-.25-.48-.31-.55.37.49.42-.19.31.55.42-.13,1,.92-.25-.06-1,1.28-.18-.06-.43.43.19.18,1.16.43-.13h0l.48-.12-.48.12.36.13-.49.48.19.68.48.67.19,1.28.36-.31Zm24.86-7.4.31.13.31-.19-.67-.31Zm-1.77-.31h-.42l-.19.37.19.36.67-.31Zm-28.47.25.06-.06.36.19Zm32.26,0-.55.13-.19.48.31.43.74-.61Zm.67.36.48-.18-.61-.13Zm-27.07.61.43-.67-1.6-.06.37.73Zm.31.68.31-.07.8.25.55-.55-.25-.79-.74-.19-.18.55-.67.12-.86.19,1,.36L146,47l-.19.37Zm23.65.36-.55-1.59-.55.61.25.85Zm-11.61-1.1-.37-.48L157.67,47l.61-.06Zm-18.4.86.37.06.36-.12.06-.36-.31-.19-.36-.06v-.31l-.31-.19-.13.43-.12.36Zm-2.44-.67L138,47h.55l-.61-.92Zm22.24.18.43.68.42.12.49-.49-.86-.79Zm-.06-.18-.73-.06-.43.61.31.67.74.06Zm-3.3.25-.36-.19-.36.25.06.42.73-.06Zm10.94-.19-.55.55.19.61-.55-.13-.49.68,1.6.18-.37-.73.92-1Zm-29,.06.43.25.31-.19Zm10.14.06.07.61.31-.18-.07-.31ZM174,48.07l.74-.36v-.8l-1.22-.06h-.61l-.31.48.31.55Zm-36.53-.8.86-.06-.43-.25Zm30.18.61.48.19.43-.36-.13-.55Zm-2.75-.18.42-.07.19-.36Zm-25.18.48.36-.06.37-.12-.07.61.43-.55-.25-.74-.12.61-.92-.31-.37.25v.43Zm-.92-.31-.31-.31.19.74Zm20.71,0-.06.31.36-.36Zm12.28.92.25.36.31-.06.19.25.79-.12.25-.8h-.86l-.06-.61-.31.25-.06.25Zm-38.91-.48-.86.24.31,1-.42-.13.31,1.22.42-.42-.06-.31.79-.43.61-.18.31.36.13.12.31.86,1.09-1.28-.79-.19-.31.31-.31-.79-.19-.8-.55.55.31.73-.31-.06-.31.36.13-.61Zm31.77-.43.36.61v-.42Zm-27.86.06-.43.37.92-.19ZM156.32,49l.61-.12.25-.55-1-.43-.25.61Zm-7.26.49.79.12.25-1.47-.86-.12-.48.67.12.42-.06.55.42.36h-.73l.06,1.41-.86.49.06.48.61-.42.31.61.86.06-.61-1.22h.36l.37-.67-.37-.74Zm21-.74-.61-.25-.61.55.13.8.36-.13L169.7,51l-.67-.24-.61.48.25.49.06.31.55.25.61-.49-.06-.49.42-.67-.19.36.43.49.61-.12-.31-.13.36-.25-.55-1.09h.31l-.67-.25V49l.42-.12-.18-.8-.49.12ZM158.89,49l.36.12.19-.73-.43-.12-.61.48.36-.06Zm5.8,0,.31.8,1-1.35-.86-.12Zm-22.49-.61.25.36L142,49Zm15.58.49-.25-.37.07,1,.36-.25Zm-6.05-.37-.42.19v.42Zm-13.14.13-.61.73.49-.18Zm14.05.48-.31-.42h-.54ZM168.48,49v.31l.31-.42ZM139.83,50l1,.42.31-.61-.43-.54-.67.06-.36.73-.55-.18.49.24-.13.31.36.55.68-.06Zm16-.55-.36-.18-.37.24.19.61.25.68.67.12.42-.49-.61-.54.19-.31-.31.18Zm12.22.49.25-.67-1.41.18.42.55Zm-30.91-.06.48-.55-.42.18Zm20.09-.49-.36-.06.49.42Zm16.56.55-.19.73,1.53-.42-.61-.55-.49.19-.48-.37-.36-.18-.61.42.67.31.06-.36Zm-25.42-.55-.54.73.48-.24Zm5.32,1,.86.13-1.16-.92Zm-15.77-.73h-.55l-.24.48.24.49.55-.06Zm34.4,0-.55.18-.36.49.42-.06.31.25Zm-31.16.06-.06.8.67.42Zm8.55.31.36-.25-.73.06Zm23,.31.36.25-.31-.67Zm-21.14-.19-.06,1-.19.42.67-.48-.06.31.67.61.31-1.6h.74l-.31-.54-.61.06-.13.48-.42-.12Zm-7.39,1.16.54-.18-.92-.8-.12.61Zm22.54,2.88.19-.13.31.13-.06.36.31.36.25-.8.31.25.73-.36-.12-.92H169l-1-.73v-.8l-.74-.36-.18-.13-.43-.18-.36-.49-.42.31.18.61v.61h.8l-.25.43.67.36.61-.31.19.42-.61.92-.31-.42-.43.25-.36.61Zm-32.86-3.79.31.67.06-.42Zm8,.92.49.19-.13-.55-.31.06Zm-2.08,0-.06-.36-1.16.36.43.67.42.25.49-.36Zm.67-.18-.36-.13.06.74.31-.25Zm24.62-.13-.36.49.25.55Zm9,.13-.86-.07.67.43-.36.55.36-.19v-.36l.55.42Zm-12.59.18-.18.55,1.09-.25-.36-.42Zm10.45,1-.43.42-.31-.55h-.61V51.8l-1,.36.42.36.37-.12-.25.31,1.47.12v.68l-.37-.07-.18-.48-.92.06-.36-.31-.49.25.06.55-.06.54-.19.68.37.48-.68-.42-.06.79.61.37-.73.85h1l.42-.54-.12-.43.8.31-.37-.42-.12-.13.42-.48-.42-.43.31-.36.42.43-.12.36.42-.36.8-.31.31-.61-.12-.8-.13-.67.19.31h.61l.42.48L174,53l-.61-.86.06-.92-.61.06h-.48l-.74.61Zm-17.9-.92-.25.36.13.36.54-.67Zm2.38.92.12-.55-.42-.36-.25,1Zm-1.1-.86-.92.42-.36.25.61.49-.42.92.67-.49-.13-.67.13.18.06.31.31.13-.36.12-.13.92.61.31.55-.42-.06-.67-.31-.43-.12-.12.24-.25Zm-19,.48h-.61l.61.49h.49l.24-.42-.24-.43Zm-2.56,1-.25-1-.36.37.12.42Zm9.22-.25.79.31.8-.49-.31-.42-.61.06-.73-.12Zm22.85.06.31-.25v-.31l-.68.06.07.37Zm8.61-.31-.43-.06-.24.36.79.25Zm-32.74,1.47.48-.74L140.51,53l.18.36-.25-.36-.06-.49-.42-.18-.43.31.07.48.48-.06.19.43.61.31.67.42Zm-6.79-1.22-.06.61,1.1-.55-.49-.31Zm13.26-.13-1,.43.42.31.49-.19Zm9.16.49-.19-.31-.31.67h.36l.31.19.37-.13L158,53Zm-20.83-.25.42,1.65.42-.37-.85,1.29,1,.06.73-.13-.67-.24.25-.37-.25-.85-.19-.8Zm17.9.06-.55-.06-.06.31.55.06Zm8.19,1.22.8-1.22h-.74l-.42.61Zm-14.17-.85.24.36h.43l.18-.36-.61-.37Zm17.84,0-.36.42.92-.36Zm6.72.67.06-.31-.55-.06Zm-28.29.86.68-.31.06-.74-1.28-.12-.07.73Zm6.72-.55v.42l.31.13.55.12.31-1.1-.61-.18Zm14.36-.13.37-.31-.49-.18Zm-31.95.13.18-.55-.73.67ZM164.33,54h.42l-.67-.36Zm-29.51-.18h-.42l-.19.36Zm8.19.36.12.42.36.13-.18-.86Zm31.4,1,.61-.06.31-.61L175,54l-1,.67Zm-16.5-1-.31.73,1.59-.24-.49-.61Zm14.17,1.34-.06.31.42.55.36-.92.43-.06.18-.25v-.55l.49.25v-.48l-.92-.31-.67.31L172,55v.31Zm-31.52-.12,1.28-.92-.73-.36-.61.48Zm8.86-.61-.06.42.73.13-.06-.49.06-.31-.36-.36.06.49Zm14.36-.12-.13-.43-.42-.06-.19.67.43.13Zm-9.47,1.09.12-1.47-.67.31-.06.74ZM138.6,55l.37.54h.67l-.06-1.15h-.68Zm26.7-.13.42-.48-1.09.36Zm-5.69.36.49-.18-.13-.31-.31-.06Zm-4.28-.36.8.74L156,55Zm6,.06-.43.55L162,55ZM148,55.65l.31-.49h-1.1l.25.49Zm16,.24-.18-.54-.49-.19.25,1.1Zm10.57-.67-.55.19-.48.12.42.36.49-.12Zm-12,.06-.55.31.55.92.48-.31.07-.61Zm4,2,.31-.61-.19-.36.25-.43-.36-.61-.42.8h-.43l-.31.67Zm1.47-2-.74.31.49,1.28.73-.31.13-.8Zm-32.57.06-.67.31v.73l1.28-.67Zm17.35,1.34.06-.31.43.49.31-.8-.61-.67-.8.19.36.42Zm8.49-.48.36-.13.06-.36-.31-.25ZM140,55.77l.42.55.68-.13.18-.61Zm34.58.12-.31,1.47.67-.25.19-.67Zm-31.71.74.86.12-1.22-.86Zm11.79-.25.42-.42-1,.24Zm8.43-.36-.07.42-.18,1.22.79-.31.07-.55.48-.12-.42-.12Zm10.45.61.48-.13-.42-.24-.36-.25Zm-.19.25-.18-.8-.19.42Zm-42-.55-.07.42.43-.61Zm11.54,1.09.07-.73-.61-.36Zm4.1-.61.25.31.36-.12-.19-.61-.31.06Zm11.42.37.36.54.68-.12-.13-1.16-.67.13ZM151,56.8l.48.13L151,56.5Zm1.71-.18.07.36.36.12Zm3.12,2.32.31.31.61-.18.18-.67-.42-.43-.61-.55-1.41-.73-.06.61.49.31-.31.19H155l.61-.25Zm-17.72-.48.61-.61-.49-.74-.55-.24-.55.31.07.61-.68.36-.18.42.31.36.48-.06.19-.42Zm34.27.36-.31-.55.36-.25-.06-.73-.61-.31-.61.36.67,1.1-.19.48v-.42H171l-.12.86-.49.42.43-.06.18-.12.61-.07v-.61l.43.13ZM135.49,57l.06.67.61.31Zm12.35.67.48-.12.19-.43Zm1.83-.36-.37.12-.06.37ZM170,57.6l.13.49.24.36.68-.25-.13-.25-.55-.67Zm4,.36.43.36.48-.18-.31-.86-.55.19Zm-32.13.92-.55.55.19.8.48-.49.49.36.61-.12.31-.86-.25.12L142.4,59l.06-.68-.55-.85.06.79.37.19Zm24.38.06.48-.31.68.31-.37-.48.19-.31-.31-.43-.42.07-.31-.19-.43.61-.67-.06.25.42.55-.12Zm2.93.19.37.31.36-.61.18-.55-.06-.48-.42-.19-.25.55-.36-.06-.55.54,1.22.31Zm4.34-.73.24-.8-1,1Zm-34.09-.25-.49-.49-.79.92.48.43.68-.25Zm23.77,1.59,1.83-.55.18-.67-.48-.12-.43.36-.61.12-.06-1.09-.42.12-.36.06-.31.8.85.42Zm-26-2,.42.12-.31.55-.19-.25Zm30.78.54.07-.42-.49.55ZM132.32,59l.61-.37v-.73Zm2-.68-.79-.31.31.37Zm19.92,1.77H153l.68.36.61-.36.12.55.19-.61.54.19.19-.61-.67-.37-.31-.73-.8-.06-.48.61Zm20.28,0,.36-.61-.36-.67Zm-6.91-.61-.18.31.67.92.73-.36.31-.8-.54-.67-.49.43Zm-30.36-.55-.73.13-.31.67.48.42.61.43.74-.31.12-.8-.49.06Zm-3.05.61.31.55h.67l.36-.55-1-.61Zm18.33-.24H152l.37.48.54-.06-.31-.12Zm-2.63.42-.48-.12.67.54Zm16.5-.06H166l.61.36Zm-34.33.12.42.61.13-.31-.19-.31ZM166.16,61l.18-.55-.42-.42Zm-9.9-.92-.31.31.13.42.61-.61Zm18.46,2.2.18-.12.8-.36.12-.86-.73-.49-.55.31-.73.19-.43-.19-.48.25.31-.19-.49-.61-.67.13-.74,1-.31.92-.61.36.07.61-.37-.24-.42.48-.31.13-.06.42-.43-.19-.42.37-.36-.19-.61.42.48.61-.48.31.12.37,1.59-.37-.06.74-.55-.19-.24.13.06.61-.55.67-.31-.13-.49-.42.43-.86-.31-.12-.74.61-1.15-.67.06.54-.36-.73.54-.06H166l.25-.36.48-.07.25-.73-1,.12.31-.42-.31.12-.36-.79.42-.06.36.18.37-.18v-.43l-.37-.48.86-.25.13.31.31.06-.07.31.68-.19.67.25.48-.42-1-.36.13-.37-.68-.54-.12.48-.55-.67-.42-.12-.55-.13.36.36-.31-.06-.42.67v.49l-.31-.06.25-.49-.25-.48v.36l-.31-.25-.06,1.22.31.36-.19.31-.12.67-.31,1.41L164.2,65l.31-.61.06.37.25-.92.49-1.16-.61.12-.25.55.36.49-.61-.31-.67.36.06.73.61.36-.31-.12.19.67.36.19-.31-.06-.19.42-.48-.12-.49.48v.74l-.42.48.18.67.55-.18.25.36.31-.55-.67-.79.73.36.86.06.31-.12v-.43l.31-.61.55.49,1.09-.19.07.31-.61.55.73-.19.61.25-.55.19-.12.61.61.06-.25.61.86-.19.25-.79-.31-.36.24-.43.07-.06.48.73-.36.25-.25.67-.36.13-.06.31-.74-.19.37.36.36-.12v.42l1.28-.85.42.48.61-.12.37-.61-.31-.43-.19-.61.36-.31.49.37.55-.25-.37-.36.49-.19-.92-1.16.55-.31.48-.06-.06.61.8-.12.31.12-.49-.06-.36.42.19.49.36.06-.19.55.19.36h-.49l.43.86-1,.18.37-.54-.31.18-.25.49-.31.12-.19.31.19.67-.55-.18.36-.31-.06-.49-.61.55-.67.25-.13.61-.31.06-.24.42.31-.18.18.42.19-.31-.13-.31.55.49h.31l-.61.12.06.74-.61-.43-.67.36v.74l1-.13-.06-.36.36-.18-.06.42.55-.42-.36.67,1.4-.61.61-.61-.12.48-.25.07-.31.54-.48.25.48.31-.36.31,1.22-.12.42-.86.86.92-.18-.73.79-.19.36,1,.43-.48.06-.61-.55-.25.06-.8.13.31.48-.12.31-.06.25-.8-.79.61-.37.06-.06-.36.13-.36-.31.06-1-.36.19.49-.8.18-.18-.31.12-.36-.06-.55.19-.36.12-.42.36-.55-.18-.49h.31l.12.61.19.74.67-.49.42-.55v-.73L175,67l-1.29-.55-.24-.55,1.09.06-.48-.55.42-.12.06-.49.13-.61,1-.31-.55-.54-.79.24-.13.25-.67.06-.36.43-.55.73-.67.31-.49-.42-.25.31.13.42h-.86l-.36.8.48.67-.06.31-.67-.67h-.25l-.31.31-.06-.74.25.55.06-.48.49.06-.31-.67-.07-.25-.06-.74.25-.31h.55l-.13-.79.07-.43.54.25-.06-.36.55-.06.19-.43.31.31.54-.54h0v-.13l.37-.31-.37.43.13.36.67-.43-.19.43.49-.36.31-.13-.06.31.61.13-.19.54.49-.12.12-.55h.36Zm-18.09-1,.61-.19.13-.67Zm7.09-.67L164,61l.36-.06.12-.36Zm-9.41.06-.36.48.18.55.61.06Zm15.83.36-.37-.25v.86l.37-.19Zm-29.51-.06-.36,1,.48-.36Zm-1.71.25-.48.48,1.09-.31Zm31.4,1.59-.12-1.35-.31.74Zm-15-1,.06.48.43.13-.13-.92Zm9.1.73-.25.31.61-.25.13-.67-.31.36-.07-.48-.67.73Zm-12.52.61.73.36.74-.42-.8-1.22-.73.42Zm11.3-1.28-.73.06-.31.67.42.49.12.73.55-1.4-.55.42Zm-24.93.61.31.61.74-1.1-.67-.06Zm16,.61,1,.12.13-.61-.49-.36-.61.25Zm12-.31-.61-.13.31-.24Zm7.33.86.06-.49-.42-.36-.61.73.42.36Zm-31.16-.68-.86.07v.48l.43.25.42-.31Zm21.32.74.49-.74-1.35.68Zm5.07.18.06-.54.12-.31-.42.06-.49.18-.12.55.31-.06ZM135,63.1l.61,1.47.48-.67-.31-.74Zm36.89,0-.61.36.55.31.67.43.07-.74Zm-37.14,1.22.25-.42-.25-.43h-.49l-.25.43Zm8.12-.12-.48.61,1.28-.49Zm-6.53.61.61-.13-.36-.48-.31.24Zm29.82,1,.85-.06-.18-.36h-.43ZM134.7,68l.61-.19.12-.61-.67-.24-.49.06-.25.42.37.31Zm31.46.36.54-.42-.48-.06-.06-.8-.37,1.16Zm5.74-1.16-.48.13,1,.42-.12-.25Zm-34.64,1.35.55.67.55-1.59-.8.12Zm27.31-.61-.36.18.36.68.37-.25V68.1Zm1.65,1.28.25-.42-.19-.43-.55.86Zm3.91-.31-.8.12-.06-.48.61.18.42-.36ZM142,68.41l-.13.31.19.31.36-.06.19-.31Zm24.56,3.3-.49.67.55.13.31-.31,1.59-.61-.61-.55-.85.31-.07.55-.24-.36-.07-.37-.42-.06.73-1.28.37-.31-.19-.67-.12.25-.37-.61-.18.36.48.55-.31.36-.06-.49-1,.19.06.61.49,1-.07.19-.48.24v.61l.48-.85Zm-23-2.75-.68-.36-.61,1.16.68.31.61-.36Zm22,.13-.68-.37-.67,1.22.74.37.67-.43Zm6.23.79.36-.31.25.31Zm-3.91.92.67.31-.31-.42,1-.43-.86-.24-.31.36-.31-.36Zm7,0,.06-.31-.55-.06Zm-10.81,0-.37.06.43.61.12-.36Zm-21,1.1.61-.31.06-.67-1.22.54Zm22.18,1.34v-.42l.31-1.16-.49.49.06.31-.42-.25.25-.49-.37-.12-.31.18.31.49.07,1.34ZM168.48,72l.13-.42-.61.55Zm-5.62.67.18.74.8.25.55-.55-.19-.74-.31.07-.06-.37-.61-.12-.42.42Zm9.72-.18.24-.31.31.48Zm-4.28,0-.55.06.61.25ZM170,73.73h.31l.31-.43-.25.07-1-.31.31-.37-.67.49.12.49ZM167,74l.43-.19.31-.49-.31-.54-.8.06-.12.55v.31Zm51.08-12.65-.31,2.27v1l-.31.86.42,2.62.06,3-.12,1.22L217.42,74,215,75l-1-.13-1.22.07-3.3-.25-.92-.19h-1.34l-3-.25-.31-2,.12-1-.92,1-2.32,1.47-2.08,1-1.1.42L194.08,75l-1.41.25-2.62-1.1-3.85-1L184.86,71l-1.53-2.14-.31-1-1-2.32V63.9L182,59l-.12-2.38.36-2.57-.06-1.53-.42-1.89.12-.73.06-1V45.81l1.41-3.05h1.16l1.4-.06,2.38.36,2.26-.31,3.73.43,2.14.36.31,2.2.24,2.38.13,1.28-.36,2.2L197,52.9l-.19,1,.06,2.5v3.3l2.2,4.64,1.22-.25,1.22-.18,1.16-1.65.06-1.15.19-1.1.31-1L203,57.66l-.31-2.44.25-2.32.06-3.67.06-1.22L203,45.63l.06-1,.68-1.09,2.14-.55,3.17-.06,1.28-.06,3.73.12,1.29-.06,1.09-.25L217.91,44l-.19,4.4.19,1-.06,2.21.12,1.4-.31,1.41.25,1.83.19,1.34.24,1.28-.31,1Zm-13-16.25-.49-.12.13.48.31-.06Zm11.12.06-.42.25-.12.31.31.73.61.13.31-1.22Zm-9.34.61h-.36v.67h.36l.18-.31Zm1.89.8.36-.61-.36.18Zm-2.69.25-.48-.19-.43-.19-.42.31.06.49h.92l.49-.19.24.49.74.19.36.61.31-.13.06-.48-.18-.31-.43.18.49-.61-.36-.79Zm5.56-.49-.54.06-.13.55.31.42.55-.12Zm3.61.92.06.36.07.31.31-.18Zm-3.84.8.85.12-.36-.31Zm2.44.54-1.1-.73-.06.67.55.36Zm1-.36.42-.06-.79-.31Zm-.19,1-.36-.8-.25.36.19.36Zm-10-.13-.13-.36-.36-.06Zm5.25,1-.31-1.28-.49.49.19.61Zm5.69-.73-.07-.49-.36.8Zm-23.34.19-.79-.25-.61.55.12.85.8.25Zm11.49,1.34.25-1.47-.55.61Zm4.09-.73-.92.31.49.12Zm-14.11.42-.86-.25-.12.43.31.42.48-.12Zm18,1,.49-.18.06-.49-.36-.31-.55.61Zm1.47,1.35.25-.43.42-.55-.31-.73-.8-.12-.48.61.12.31-.73-.37v.74l-.19.42-.06.55h.36l.36-.25.61-.12.13.42.55.19.48-.43Zm3.54,2.56.13-.86.06-.55-.42-.48-.68-.25.49-.36-.25-.92-.48-.25-.43.36.06.55.37-.06-.55.61-.13.55.49-.13-.31,1,.67.37.43-.07-.19.68Zm-22-3.55-.48-.06-.31.36Zm19.13.07.19,1-.13.36-.48.61.24.73,1.29-.42-.25-.73-.43-.13.19-.67.19-.42-.31-.37Zm-4.83,1.34.67.25.55-.49-.86-.92-.54.49Zm2-.55v-.42l-.74.36.36.25Zm-3.3.06-.86-.06-.49.67.37.8Zm-13.08.07-.12.31.42-.37Zm1.71,1-.25-.61-.67-.12Zm-10.33,2-.13-.49.55-.61-1-1-.61.67.25.79.31.07-.13.36.36.36Zm27-1.83-.73-.13.12.36-.31.37.43-.19.61-.06.24-.36Zm-20.34,1.46.85-.06.37-.79-.43-.68-1.28.8Zm4-.67-.55-.67-.86.12Zm-13.93.8.67-.06.25-.61-.36-.55-1,.73ZM195,55.27l.36.13.25-.31-.73-.13ZM212.6,55H212l-.25.54L213,56.74l.25-.86-.31-.36Zm2.32.18h-.67l-.36.49.48.31.49-.25Zm.55.25.31.12.25-.36ZM205,55.83l-.06-.36-.49-.19-.42.49.24.55.55.12-.25-.79Zm-15.94-.55-.31.07.12.54Zm5.5,1.1.12-.25-.19-.86-.36.25-.06,1.1Zm9.28-.8.31-.31-.73.19Zm1.59.43-.36.67,1.1-.67Zm10,.92-.06-.8-1.28.92.54.31-.31.25.13.8.61-.55.12.36.61.19.31-1.1V57l-.61-.42.31.67-.67-.06Zm-20.53-.31-.61,1,.55.31.61-.31V57Zm17.66.18-.13.31.43-.31Zm-5.57.68-.73.24-.25.37.25.36h.42v-.55l.37-.12Zm5.74.31.49-.19-.92-.12Zm-.86.48.19-.73-.92.92Zm-20.64.55-.49-.42-.86.79.49.49.67-.19Zm20.59.42.19.37.61.06v-.43H213l.31-.48-.67.36.06-.55h-.61l-.36.49-.31.18Zm3.85.61-.31-.42v.31ZM192,60.16l.06-.48-.36-.25-.48.19.36.73Zm22.91,4,.06.55,1.16-.12-.18-.74.18-.36-.31-.18.61-.07-.06-1.34H216l.06-1.41-.42.07-.61.12.06.36.31.13-.06.42.54.31h-.31l-.36.73.36.55-.48.31L215,64l.07-.67-.55-.49.25-.36.48-.19-.25-.61-.42-.12.31-.67v-.43l-.12-.36-.43-.12-.55.31V61l-.24.55-.25.92-.13-.42-.42-.13.25-.31-.25-.36-.42.73h.31l-.31.31.79.13-.42.36-1-.49.06.8.79.55.13.25L213,64l.18.36.31-.25.31-.67.55,1ZM207.46,61l1.16-.61L208,60l-.68.31-.06.67v-.31l-.55-.19-.42.31.06.55h.8l.42.06.25-.31ZM194.63,61l.06-.49-.49.19.13.31Zm12.89,2.81.67.43.74-1.1.42-1.28-.36.48-.19-.48.31-.49-.48-.73-.8,1.53.73.18-.31-.06-.12.43-.55.31Zm4-2.81-.31.36,1,.19L212,61Zm-6.47.92-.06-.73-.61,1.15Zm.19,2,.48.61-.79-.36.36.49.48-.06.31.42.37-.12.54-.31V63.9l-.48-.31-.36-.13.61-.61-.37-.36.25-.67-.42-.55-.36,1.34Zm-16.19-1.89.61-.42h-.43Zm8.55.13-.61-.49-.68.31-.06.73Zm13.44.79h.31l-.31-.25-.31-1-.31.36.12.49ZM189,61.76l-.61.12.07.36Zm-5.25,1,.8-.06.36-.8Zm20,.06-.37.06-.12.31.61.25Zm6.59.36.49,1v.36l-.49-.06.61.36.25.61-.19-.31-.92.73.37.55.67-.12.06-.86.73.12.13-.86.25-.31-.19-.79-1,.25.24-.86-.54-.06Zm-5.25.61.36-.48-1,.42Zm7.45-.12v-.06l.37.31Zm-10.14,1h.36l-.54-.31Zm1,2.38-.06.61L204,68l-.79-1.53-1-.55-.48-.12.36-.06-.06-.61-.43-.31L201,65l-.31-.54-.74-.07-.48.68.36.67.8-.25-.55.36v.8l-.31.36-.43.42.68.8.42-.36.06-.36.36-.19h1.53v.36h.74Zm-13.31-2-.74-.42-.79.42.73,1.29.74-.43ZM207,65l.25-.36-.67.36Zm2.94.8.73-.67-.36-.37-.55.07-.18.54Zm-3.3,4-.18-.31.54-.19-.18-.42-.36-.67v-.92l.12.61.36-1.41.61-.49.61-.24-.42-.07-.25.31-.42-.06-.37-.31.49-.18.12-.61-.67.73-.61.12-.06.43.36.73h-.31l-.25.49-.48-.13.42-.36-.12-.55-.25.25-1.22-.12-.19.92.61.31.68.36-.19.67,1.16.43ZM194,65.36l.25.43h.48l-.48-.86Zm19.86,1.16.67-.18-.19-.55.37.18-.07-.67-.54-.31-.8.43-.36.73.61.06ZM203.8,65.36l-.49-.12-.42.36.12.61,1-.18-.13-.49.36-.31Zm11.79.8v-.8l-.67,1.22ZM199,65.36l-.42.13-.13.36.74.25.12-.43Zm17.53.19-.61.19.13.36.36.06Zm-4.15.55-.43-.31-.42.48v-.36l-.42.67.42.68.19-.25.61-.25.24-.36v-.49l-.42-.25Zm-10.94.42-.36.55v-.31l-.86-.06.55-1ZM191,65.73l-.73.42,1.46.06Zm7.52,1-.61-.25-.13.31.19.31h.36Zm11.79,1.09-.06.37.42.31-.31-.74.19-.18.36.31h.61l-.31.36-.48.25.36.73.79.12.55-.67-.55-.86-.24-.42-.37.06-.06-.42-.12-.13-.43-.12-.67.06-.25.61.37.55.18-.19v-.12l.06.06Zm-2.69-1-.42.25.86.49v-.49Zm-10.69,2,.25.79.86.19.55-.67L198,69l.42-.85-.48.06.61-.13-.13-.54-.79-.07-.31-.61L196.47,68l.61.13.06.36.67-.31-.12.73Zm-7.09-1.16.31-.73-1.09.85Zm26.33.36.31.61.86-1.28-.79-.06-.31.55-.8-.74-.49.49.19.61.67.18Zm-3.42-.55.31.19.31-.12v-.37Zm-14.05.37.43.73.42-.25-.06-.48-.43-.25Zm-3.17.06-.49.12.8.19Zm5.92,1.22.43-.13.12-.42-.31-.36-.31.31-.36-.25-.19.31-.31-.31-.36.31.12.49.37.12.31.19Zm1.65.31.48-.36v-.61l-.67-.19-.31.19.06.36h.36Zm1-.55.67.36.19-.36-.25-.36h-.43Zm-14.24.67.8.31.67-.48-.12-.86-1.47.18ZM216.63,71l.36-.61.19-.55-.25-.31-.19-.73-.55.12-.79.06-.19.43-.36.06.67.36.43.06-.43.55-.55.06-.24.67.48.49.06.31.13-.36.55-.25L216,71Zm-17.9-1.1,1.53-.55-.61-.48-.79.25Zm11.3,0,.67-.55-.42-.18-.31.31Zm-2.38.19.8.06.42-.67-1.59-.06Zm-5.8-.25.31.19-.36-.55Zm1.1,1.59v-.67l.31-.31-1-.12-1-.43v.31l-.12.67-.61.25-.25.55.43.61.79-.06.36-.74-.31-.12.8-.06.25-.49Zm7.33-1.28-.25.42.36.07.25.67.74.12.12-.67.36-.12-.31-.43-.86-.31Zm-10.63.06-1.53-.25.25.74.8.12Zm6.72,0-.48.36.54-.06ZM192,71.29h.61l.36-.49-.31-.55Zm19.92-.92.25,1.47.86-.13.19-.42.06.31,1.34-.49-.31-.73-.73-.13-.43.43-.36-.43ZM204.1,71l.31.42H205l-.55-.92Zm2.26,1.65.19-1-.13-.31.37.36-.74-.79-.31.24.06.61-.06-.42-.55.36.07.67ZM216.44,71l-.12.31.67-.06-.19-.31Zm-7.88.67-.61-.18.8.73Zm6.79.55-.43-.73h-.86l-.42.73Zm-5.8.31-.55.36,1.16-.06.79-.67-.36-.49-.61.06-.25.61.43.49Zm-10.39.61.79-.36L200,72l-1.53-.06-.06.86ZM196.1,72l.24.8.31-.31-.12-.43Zm11.3,1.77.48-.74-.06-.79-.67,1-.06.36Zm3.23-.49.49.25.48-.25-.48-.86-.49.31Zm1.41-.18.48-.07.19-.48-.92.12Zm1.83.48.42-.18v-.43l-.36-.25-.19.37.19-.43-.36.25-.06.49Zm.86-.31.36.67,1.09-.61-.31-.61-.73-.06Zm39.77-8.55.36,2.32.25,2.5-.31.92-.55,3.78-1.28.68-1.1-.13-3.23-.06-1.1-.06-3.91.31-1.34-.25h-5.86l-2.27-.19-.92.31-3.05-.12-.92.19-3.54-.37-1.35.19-1-.36-.49-1.47.06-1,.49-2.63L222.86,67l-.25-.92,1.1-2,1.89-1.28,1.47-1.83.73-.67.92-.92,1.1-.55,2-1.59,1.15-.8.74-.8.86-.54.54-1,.43-.61-1,.07-1.59-.07h-2.56l-2.2-.12-2.14.06-2.57-.48-.31-2.75.25-2.82.12-2.62.25-1.35,2.27-.24,1.28.18,2.32-.48,1.1.12,2.38-.12,1.09.24,2.63-.12,1.28-.25.67-.31,1.35.19,2.38.36,2.56.36,2.14-.55,2.38.43,2.38-.06,1.09.42.36,2.08.37,2-.25,1-.19,1.4v2.38l-.73,1.71-1.59,1.47-2,1.65-1,.67-.8.92-1.89,1.35-1.59,1.46-2,1.71-1,1,1.28.13,2.57-.43,1.09.13,1.35.06,1.22-.19,2.38.31ZM239.6,43.06l-.8.31-.12.86.67.55.8-.36-.06.55.85-.19.37.49.42-.07-.06-.73-.61.06-.43-.31-.36-.25-.36.07.36-.43Zm2.87,1-.12-.61-.31,1Zm1.35.18-.8-.18-.55.61,1,.92.55-.61Zm-6.91.19-.36-.19-.31.68.42.18.31-.31Zm11.24.06-.36-.06-.31.25.42.42.31-.25Zm1.59.36-.31-.42h-.61l.06,1h.61Zm-4,.31-.73-.67.18.55.43,1Zm-14.91.74-.06-.86-.8-.31Zm11.91-.43.06-.36-.18-.31-.36.06.06.61Zm-3.36-.06.31-.06.06-.31Zm-4.89-.31-.42.25-.55.61,1.22.25.36.06-.31-.8-.48-.06.48-.18Zm4.16.13-.36-.13-.37.31.86.25Zm2.5.24-.73-.12.54,1.41.43-.61ZM229,46.6l.55-.12.12-.55-.92-.25-.18.55Zm8.37.86.54-.61-.24-.74-.8-.12-.25,1.34Zm-7.58-1,.18.8,1.35-.25-.06-1h-.92l-.19.19ZM225.43,46l-.74.42v.86l.74.43Zm7.76.25-.25.73-.31.31.19.61.25-.79,1.22.48.24-1-.48-.49Zm8.13.92.48-.06.19-.49-.25-.36-.73.48Zm-5.93.61.43-.49-.19-.55.49-.31-1.16.07.55.24-.8.92Zm5.86.73-.18-.55-.19,1Zm-8.67,1.22.73.19.31-.31.37.12.24.36.19-.54.61-.25v-.13l-.06-1-1.35.36-.73-.18Zm-.55-1-.31.8.36-.31Zm8.43.86.36-.67-.36.24Zm-.86.18-.31-.12-.42-.61H238l.31.36.12.8.25.86,1.16-.8v-1Zm.92.07-.36.12-.13.73.86-.12v-.31l.25-.36-.31-.19Zm2.44.92v.48l.42.25v-.86l.13.36.12-1-.31.55Zm-7.39,0,1.09-.07-.31-.48-.54.06Zm-1.47.18.73-.18-.42-.13Zm-9-.12-.31.48.85-.48Zm15.27,1.83.67-.06.25-.61-.43-.55Zm-5.69.31.55.12.31-.25L236,53l.61-.61-.18-.8-.8.19-.67.18.18.74-1-.13Zm8.55,1.59.42-.49-.85-.79-.43.48.19.61Zm-3.85-.31,1.16.49.31-.68-.42-.54-.74.06Zm-.67.67-.55-1.34-.42.61.25.67.67.06-.31.19.92.48-.06-.48Zm-1.53,2.69.55.19.36-.55.8-1.16.06-.55-.42.49H238l-.36-.43-.31-.18h.42L238,55h-.61l.06-.79-.36.18-.36-.54H236L236,55.1l.61.18.13.37-.36.79.54.67.19.43-.61.06-.06.86-.31-.06-.06.36.67.18.12-.36L236.6,58Zm8.25-3.05.31-.12-.48-.37Zm-2.56,1.53.55-.86-.49-.36-.55.31v.61Zm-7.52-.67-.36.06-.19.31.55.31.19-.36Zm11.67.79-.06-.67-.48,1Zm-10.81-.61-.36.8.42-.31Zm4,.19-.12.55v-.49l-.43-.18-.42.24.61.61.49.37-.13-.43.31-.12V56Zm2.38,1.71.73-.49-1.53-.73.07.85Zm4.52-.19.12-.55-.67.67Zm-11.85-.06.31.18-.25-.54Zm10-.06-.8.24-.19.86.68.55,1-1.1Zm-5.13.61-.55.31-.06.67.55.36Zm-1.83,1.28.73.12-1-.79Zm6.36.55-.07-.31-.54.06-.31-.06-.61-.68-.61.61.12.49-.31.36.12.49.13.36.06-.36.42-.43.49.13.61-.8Zm-7.46-.8.31.19.31-.13Zm3.36.36-.36-.12.42.48Zm.43.8.31.06,1,.19-.25-.68-.42-.06-.36-.36.06.31Zm-9,1.22.25-.61-.43.06-.12.42-.55.07.61.31.61.24.31.43h.49l.06.36.92-.12.67.54.06,1.53-.61-.42-.06.36.36.31.37-.06.67-.49.12-.85.19-.49-.92-.61.18-.86-.67-.18-.61.31-.42-.37-.06-.48-.37-.19-.31-.42.74-.55-.8.12-.12.55Zm4.77-.31.31-.49.12-.42-.42-.49h-.43l-.25.36v.49l.19.55Zm2.56-.67L239,60.1l-.31.25.67.25ZM238,60.9l-.13-.74-.12.37Zm3-.43-.31.25.73-.12Zm-.55.37.18.36.43.06.25-.36Zm-5.07,1.59.36-1.16-.48.49Zm-4.34-.8.19-.31-1.1-.06.25.49Zm-2,.13-.36-.37-.55.13.25.92.55-.13Zm.61-.37-.31.13.49.73.31-.06-.25-.49Zm11.18.25.06.49.49.12Zm-9.22,1.59.48.13-.18.48.55.61.92-.61.85-.36h-1l-.36-.12-.31-.36-.19-.49-.48-.12-.31-.25-.31-.13-.67.25-.13.67-.06-.31-.67.74.12.86.31-.8.31-.25.49.49v.79l-.61.49.06.61.55.25.25-.49.54.31-.18-.92-.31-.18.55-.49-.31-.42-.43.06Zm-2.2-.31h.42l-.31-.48h-.61l-.31.55Zm3.67-.12-.37.31.86-.12Zm.48.55.31-.31-.67.25Zm4.16-.25H236l.31.49.13.24h.85Zm-13.38,1.65.73.49.74-.36-.61-1.35-.74.37Zm4.83-1.15-.31.48-.8.13.19.67.36.48-.12.92.48-.18-.25-.74.55-.06.49-.61h.67l-.25-.18-.79.12-.37-.12.31-.07.13-.48Zm-1.28,1.09-.43-.36.06.42.13.31Zm7.33.36v.37l.67-1.1-.61.36-.06.31-.55-.25-.61.37Zm-1.65-.24-.36,1.34.55-.61Zm8.25.54-.36-.54-.67.06.31.42-.31.19h.42l.36.48Zm6.36.61-.49-1-.67.92.49.36Zm1-1,.07.86.73.42Zm-3.6.12-.68.55-.42.43.67.24.55-.48Zm-1.9.07-.12.31.8.42-.31-.55ZM229.52,68.9l.73-.55.43.06-.31-.79-.25.18.49-.42h-.8l-.73-.31-.61-.61-.31-.25-.07-.31-.18-.31-.31-.18-.31.12-.36-.19-.68.37.61,1.09-.48.25.48,1.16.68-.31.18-.55.61-.49v.61l.25.49.42.25Zm5.25-1.71-.36.55.31.61,1-.48-.18-.43h.55l.36-.48.48.18.31-.86-.12.37,1-.07.19.8,1.09-1.16-.85-.06-.43-.42h-.42l-1.1-.19-.61.55.19.79-1-.06.25.43Zm11.61-1-.18-.61-.68.92-.61-.25.07.61.48.25.67-.61.25.49.61.06.36-.49L247,66Zm-16.92.13.92.73.42-.49-.25-.61-.67-.12Zm-5.25-.49.67.36.67-.36Zm19.12,1L243,66l-.12.55Zm-9.41-.36.19-.42-.73.48Zm7,.13-.36-.37.06.31Zm-.18.79-.25-.79-.31,1.46Zm13.44-.67-1,.36.25.55.55.12.42-.42Zm-12,.31-1.47-.19.68.49Zm.8.8-.31-1-.13.61Zm9.83-.68-.36-.31.12.43-.18.36.24.36Zm-15.09,0-.37-.06.49.43ZM248,68.72l.49-1.53-.8.19-.24.73Zm-4.89-1.09.13.31.31-.55Zm-5,0,.61.31.55-.43Zm-1.77,0-.31.31.13.31.36.12Zm.92.79.8-.12-1.28-.42Zm16.55.92.68-.36v-.73l-.68-.36Zm-7.76.49-.06-.36,1-.67-.61-.37-.61.37-.12-.61-.74-.25.25,1.53.61-.49-.18.74Zm-12,.36.73.31v-.55l-.19-.61-.18-.31.06-.67-.55-.36-.61.31,1.1.73-.61.49Zm7.14-2-.55-.25v.31Zm2.08.61L243,68.1l-.31,1.22ZM224,68.9l.42.31.43-.73-.43-.25-.42.18Zm17.78,1.53.25-.86.36-.36-.31-.8-.86-.18.13.42-.74.49-.31.06-.73.31.48,1.28.8-.31.19-.79h.31Zm10-1.34.25-.49-1.1.12.36.43Zm-19.61.54.42-.18.19-.43-.25-.42H232Zm1.59-1-.31.74.36-.25Zm14.72.36-.49-.24-.36.12-.42.25.06.48.12-.31,1.22.86.07-.86Zm4.22-.12-.67-.06,1,.61Zm-10.27,1.59h1.22l-.06-.42.12-.31-.48-.25V70h-.49Zm9.35,1,.86-.07.36-.79-.55-.67Zm-22-1.16.48.18.43-.36Zm-.67.86.85.18.55-.67-1.71-.31Zm19.48-.74.07,1,.42-.31-.06-.48Zm-.31.36.13.31.06-.61Zm-7,.19-.48.25-.13.61.19.67.61.12.31-.24-.42-.37.31-.18.06-.55Zm4.4.55.18.55.55.12-.31-1.1Zm5.19-.36-.19.31h.74l-.19-.31Zm-12.52.61.48.36.25-.31-.18-.31-.37-.06Zm-2.08.54.36.19V72.2l.31.25.25-.37-.19-.36-.42-.06-.25.31Zm15.39.37.43.06.31-.31-.19-.43-.67.25ZM245,72.14l-1,.31.43.36.48-.19Zm1.65.73.74.06.42-.55-1.47-.18Zm-2,.8.79.12.49-.61-.25-.73ZM237.34,73l-.55-.36L237,73Zm-.86-.24v.48l.36.25Zm4.7.54-.18-.48-.49-.06Zm-6.11.31.55.19.49-.36-.13-.61Zm5.93.74.79-.13.31-.79-.55-.61Zm-3.91-.8.55.31.54-.36-.06-.61Zm-7.7.74.73-.13.25-.67-1.47.25Zm62.74-9.66.31,2.75.06,1.41-.42.85.25,1.16-.07,1.1v2.32l-2.62.43-2.81.25-2.14-.31-2.38.12-1.53-.06-1.35.18-1.15-2.62.18-.92-1.4,1.65-1.22.49-4.1,2.08-2.44-.13-1.4-.18-1-.49-1.16-.19-1.15-.36-1.41-.25-2.44-1.22-1.53-2.14-1-2.32.12-2.5L258.11,63l1-2.44,1.89-2,1.77-.54.92-.74,2.69-1.4,1.15-.13,2.38-.42,2.08-.25,2.56-.8,1.1-.06,2-.36-.54-3.05h-1.22l-2.57,1.28-1.83.74h-.55l-1.09.18L268.62,53l-3.42-.31-1.1-.06-1,.42-.92-.25-2.32-1.28.61-1.77,1-1.89.55-.73,1.65-1.41,2.38-1.77,1.22-.18,2.38-.19,1.09-.55,1.22-.31,4.1-.67,1.83-.19,1.89.74,2.2.73,1.47.55L285,44l1.83.61,1.71,2,2.69,2.63L292,53.2l.68,3.48-.37,1.16v2.38l-.06,1v.92l-.18,1.1ZM278.33,42.57l-.36.12-.07.31.25.31.36-.12ZM275.64,44l-.61-.13-.06.36.31.25.31-.12Zm5.5,1-1.28-.55-.31.73.48.68.8-.13Zm-11.06-.55-.36,1.1-.13.54-.25.31.49.74-.25.48.36.49-.12-1,.61.12-.06-1.4.18-.25.74-.25.18-.67-.92.25Zm-3.73.31-.31-.06-.07.55.49-.19ZM267.95,46l.67.12.73.07-.31-.55.25-.31-.31.12-.48-.31v-.36l-.74.36.31.25.25.06.12.31Zm-1.59-.19.61-.31-1.22-.12Zm5.62-.18-.36-.13.42.55ZM275,47l.31-.12.06-.31.36.06.37-.42-.74-.61-.36.48-.42.25-.31-.12ZM278,45.87l-.68-.25-.12.42.31.31.36-.06Zm.31.36-.43.36.13.55.54.18Zm-4.4.86.61-.49-1.34.19Zm-6.78,1.71h.36v-.67l.36-.73-.48-.74-.86.06-.36.8.92.42-.55.37-.42.36.73.31Zm5.44-2,.25.73.79.19Zm3.3.12-.31.19-.07.36.68.06v-.36Zm3.78.61-.31.55-.42-.25-.49.25-.06.55,1-.49-.61.55-.31.92.55.18.36-.36L279,48.8l.92-.31-.06.31.55.43L281,49l-.49-.43-.19-.36-.36-.06v-.49Zm3.3.92.36-.31-.06-.49-.49-.12-.25.8Zm-8.49-.31h.67l.31-.55Zm1.22-.06-.06.67.67-.92Zm-7.64.42h.36l.19-.31-.55-.36-.19.31Zm2-.36v.42h.73v-.42l-.36-.19Zm-.68.36h.37l.18-.31h-.73Zm4.83.55L275,49l.36-.74-1.59.13Zm11.67.73.37-.79-.55-.67Zm3.43-.42-.68-.73-.36.42.13.49.54.18Zm-24.74-.06,1,.61.36-.61-.36-.55h-.67Zm5.68.18.86.07-1.22-.8Zm9.72-.42-.67.8.55-.19Zm-9,1.1.37.24.54-.24-1-.31-.55.67V49.9l-1.16.67.55.36.61-.36.43.06Zm7.64,1.22.37-.37-.19-.73-.73-.19Zm10.27.31.8-.43v-.42l-.61.25-.68-.49-.06.67Zm-6.6-1-1.09.43.67.12Zm-16,.36.19.43.48.12-.36-.92Zm19.67.25-.31.55.92-.55Zm-4.51,1.47-.13.8,1.59-.55-.67-.55Zm-4.65,2.75-.48-.61-.74.06Zm5.93.31.18-.36-.85.12.24.31Zm-7.09-.25L275.15,57l.74-.25.25-.73ZM275,57.29l-.12-.73-1.35-.49.13.67.67.25.36-.25-.06.31Zm-7.33.31.06.42-.31-.12.13.42-.61.49,1.09-.31.36-.06.19-.43.67-.06.19-.42.55-.06.06.42-.61.25.48.31-.79-.19.48.74H270v-.43l.49.61.49-.31v-.06H271l-.06.06-.25.36.25.43.48-.86H271l.25-.19.79.61-.18-.79.31-.25-.07-.92.13-.31-1.1-.36-.36.61-.19.42-.36.13-.18-.31.61-.07-1.71-.92-.36.19-.25,1-.36.19Zm8.25-.86-.31,1.1.49-.43Zm-9.47.61v-.42l-.36-.19Zm-.31-.18-.42.06-.19.36.25.36Zm.67,1,.31-.42-.25-.43-.54.8Zm15.52-.67-.92,1,.61.55.73-.12-.18.73.48-.12V59l.13-.92-.31-.07Zm-16.74.25-.48-.19-.43.31ZM284,57.66h-.42l.67.36Zm-18,2.08.18.42,1-.48-.68.73.68-.25.18-.67v.43l.74.42.79-1,.06-.31-.36.42-.42-.86-.8.43-.12.18-.92-1-.36.12-.25.37-.13,1.15Zm11.3-1-.68-.25-.54.48.12.68Zm-14.6.67-.86-.67-.19.79.8.74.8.48.12.31.12-.31.13.25.31.49.18.48v.31l-.42-.48-.36,1.34.67-.19.12-.54.07,1.09L265,63l.19-.25-.25-.61-.55-.31.31-.67-.25-.61-.55-.49-.48-.06.18-.86ZM273,59.07l-.67.36v.73l1.22.31-.36-.36.42-.67Zm2.57.79-.13-.61-.48.49.31.25Zm-1.41-.18v-.31h-.55Zm-13.62,1.53-.37.55.37.48.24-.31v-.67L262,60l-.85-.25-.61.61Zm23.22-.74.24.31.25-.79-.36.12Zm-17.9-.24-.19.36.25.36Zm-3.3.18-.55-.12.68.67Zm16.68,1.1-.8-1,.13.73Zm-9.1-.49.31.13-.19-.61-.36.42-.06.36Zm-3.3,1.47.13.36.36.67.61-1,.12.49.92-.8.49-.12.06-.74-.06-.85-.55.42-.49.31-.31.73-.24-.36-.61-.06-.31.55Zm18.63-1.71.25.49.31-.12-.25-.49Zm-12.64,2.14.06-.48-.25-.25.49.12-.49-.42.13-.61-.25-.36-.74-.19.19.61h-.49l.55.25-.12.49-.25.42-.25.55.43.61.73-.13.25-.24Zm-9.66-2-.67.25,1.1.86.06-.68Zm2,1.16.73.31.67-.8-.55-.48-.67.24Zm7,3.78,1.53.43h1.53l2.08-2.08.19-1.28.25-1.41-.07-.31-.85.19-.74.06-1.59,1.22-1.22.42Zm-9.4-4.52-.31-.06-.55.06-.49.19.36.8.49-.25.61.06Zm20,.49-.61.42,1.28-.06Zm5.44.06-1.47.31.49.55.73-.12.13-.31Zm-9.53.25.36.31.49-.25ZM260.79,63v-.61l-1,.73.55.25Zm9.9-.25.06.55.42-.92Zm-7.58.86-.12-.86-.8-.31-.55,1.34.8.31Zm19.67-1-.12.37.73-.13-.24-.31Zm4.83,1.47.61.31.55-.42-1.22-.55Zm-21.87-.25.18-.36-.48.43Zm3.54.55.43-.06.54.06L270,64l-.24-.43-.74.25-.67.06-.06-.31h-.49l-.67.19,1.41.31-.07.36Zm-4.7,2.32v.36l.48.36.8-.36.25-.12.36.06.25-.31-.19-.31-.55.25.13-.37-.55.13.55-.49.73.74.25.48h.55l.31-.42-.8-.55-.18.31-.19-.49-.67-.12V65.3l.73-.25.55.31.36.37.55-.55-.19-.8-.73-.25h-.73l-.49.74-.12.42-1.35-.06-.06.8.36.24Zm-5-2.27-.31-.18-.54,1,.92.36.36-.12.25.31-.07-.55.07-.36-.37-.06.07-.43Zm2.69,1.71.55-.36.12-.25.31-.36-.48-.06-.61-.31-.43.92-.54-.68-.19.49.31.36h.36Zm5.69-.06,1.16-.25.54-.19.19-.73-.8.8-.24-.31-.61.06Zm1,3.42.42-.19h.74l.25-.24.42.31.55-.8-.31-.25.42-.36.25-.55-.36-.48-.92.24-.06-.61-.19-.61h-.31l-.12.37.79,1.53.31.42-.48.42L269,68.66Zm-9.72-3.36-.12.42.31.31.55-.48-.31-.31Zm4.83,0-.36.06.55.55ZM262,67.56l.19-.92h.42v-.31l-.73-.13-.74.19-.06.31.49.31Zm9.47-.74,1.35,1.1.12-.86-.67-.55Zm-1.89,1.35-.55-.25.31-.74-.48-.61-.74.13.31.61.36.31.25.31v.31Zm-8.43-.55L261,67l-.55-.19-.48.36.67.8Zm2.44.92.8.06.49-.61-.37-.73-.79-.13Zm-3.9-1.16.36.49.12-.31Zm6.11.06-.31.06.42.43Zm11.91.8.61-.13.18-.61-1.22.31Zm-2.38.48.55.13.36-.36-.13-.55-.48-.13Zm-7.39,1,.36-.67-.13-.92-1.34-.07-.06.8.67.42.31-.12Zm-6.48-.92.19-.49-.31-.12Zm13.87.25.18.42.07-.73Zm-2.27.31-.12-.49-.19.55Zm.49-.07.31.37.49-.13-.74-.55Zm-10.94-.12.36.55.68-.06.24-.68Zm13.69.61.73-.12.25-.68Zm-10,.06.07-.55-.31.19-.61.31.73.06-.36.25v.55l.48.25Zm-5.43-.12.36-.25h-.74Zm10.5.92.31-.61-.36-.55-1,.61.36.61Zm-11.49.42.68.19.54-.49-.18-.73-.67-.19Zm17.17.31.73-.12.31-.67-.42-.55Zm-3.36-1.09.18.61.36-.13-.18-.61Zm-4.77,0-.42.06-.19.36.31.36Zm-6.84.12-.8.06-.36.67h1.59Zm7,.86-.06-.55-.36.92Zm3.12-.36-.19,1,.36.36-.18-.55,1.4-.36-.55-.61Zm-1.53-.07-.31.68.42.61.61-.43-.06.36.48-.67-.42-.61Zm-6.48.61.31.07-.31-.43v.31h-.67Zm9.23,1.35H274l.36-.49-.31-.55-.61-.06v.61Zm6.9.31.74.25.61-.55-.19-.74Zm-10.87.31-.13-.55.31-.25-.36-.12-.36.25.25.73Zm1.76-.61-.24.42h1l-.25-.36ZM349,59.49l.43,2.63.18,2.38.31,1.28L349.87,67l-.06,1.22-.25,2.5-.49,2.38-.06,1-2.32.67L343,74.59l-2.14.31-2-.19-1.4.12-2.44-2.14.67-2.93-.25-1.59-.19-2.69-.18-.8.55-3.36-.25-2.69.06-2.5-.73-2.44-1.71-.42-1.47.12-.73,1.28-.25,2.75-.19,1.22.25,2.38.25,2.57-.42,1.09.24,1.1-.06,2.32.49,1.29-.49,3.42-1.83,1.47-1.89.61-1.53.12h-2.87l-.92-.31-2.14-.12-1,.06-1.09-.36L317,71.71l-.36-1.16-.31-2-.25-1.47.74-3.48-.43-2.51.25-2.68.25-2.21-1.47-2.56-1.22-.86L312,54.6l-.19,3.11-.06,1.16.31,1.89L312,63.65l-.36,2-.25,1.28.25,1.35V69.7l.12,1.53v2l-1.59,1.28-1.28-.31-2.38.43-3.73.42-1.16.31L299,74.71l-.92-.12-.61-1.35-.12-2.81-.19-.92.31-2.2.07-1.35.12-1.46-.12-.92.12-.86-.31-2.5.25-1.47-.13-1.1.25-1.16-.48-2.38.12-1.35-.12-2.2.24-1.41V46.79l.13-1,.36-2.2,1-.12,1.35-.25,3.23-.43,1.16.31,1.22-.12h2.44l.8-.12,1.65,2,.13.8.06,1,.79-1.1,2-1.65,2.75-1,1.4-.68,1.47-.06L321.1,42l2.5,1,.86.31,2.08,1.28,1.09.61.86.92L329,47l.67-1.4.86-.68,2.62-.73,1.22-.61,1.28-.42,1.35-.61,2.5-.13,4,.55.8,1,1.09,1.1.92.86.67.86.74.79,1.16,2.27.36,2.38.67,1.29.19,2.44L349,58.21ZM338.63,43.55l-.42.12-.19.43h1l.12.18.42.13.31-.31,1.1-.8-.8-.36-.61-.31-.12.67-.31.13Zm-2-.36-.25.67,1.41-.25-.43-.55Zm-29.33.12-.92.25-.13.49.37.61,1-.74ZM316.88,45l.42.12-.54-.49Zm.55,1.09-.67-.12-.25.79.61.61.67-.12-.12.55.54.42-.54-.25-.68.43.68.18-.37.07-.24.54,1.22-.18-.37-.67.49-.07.8-1.15.42-.19.06-.67-.79-.55.36-.36-.13-.49-.48-.12-.13.48-.42.13.36.25-.67.24.19.49Zm15.83-.92-.8-.31-.55,1.41.86.31.61-.55Zm-7.82-.06-.67-.19-.49.49ZM315.72,45l-.55.06.25.42H316l-.31-.18Zm5.63.48-.68-.48-.73.36,1.22.79.06,1,.31-.67-.25-.37Zm4.7,1.41.42-.74-.42-.79-1.28.79.42.74Zm-12,1,.73-.06.06.31,1-1,.55-.07-.48-.92-.19-.61-.31.25-.92-.31-.25.67.49.55.79.19-.31-.06-.67.67-.36.06Zm26.39-1.34.73.06.43-.55-1-.18-1.15-.43-.31.67.48.55Zm-32.8,0,.24-.43-.24-.36-.74.43.25.42Zm2.62-.61-.36-.19-.06.86.36-.25Zm10.27.42-.49.06-.06.68-.36.12-.13.42.74-.31.67-.61Zm15.15,0-.42.25h.86Zm9.29.06-.43.13-.12.36.8-.19Zm-22.73.43.43.06-.61-.42Zm23.1.42.31-.73-.36.25ZM324.82,47l-.12-.31-.49.13.06.31Zm-15.94.31-.13-.48-.31.06Zm14.72.19.25-.55-1.22.19.36.48Zm8,1-.25-.42.68-.25-.74-.12v-.31l-.73-.43.42.92-.31-.24-.67.12.31,1.16.42.12-.42.49,1-.36.31.18Zm-10.45-.06.06-.31.55-.25-.36-.73-.8-.06-.42.67.31.73Zm-8.43-1.28.25.61.67.06.43-.55Zm13.08.06-.42.31,1-.12Zm-9,1.35.18-.74-.31.36Zm25-.68-1.6.19.49.61.8-.06Zm-20.1.19-.31.8.48.67.86-.13L322.57,48Zm8.06.36L329,48l-.86,1.22.73.48.74-.36Zm-18.2,1.22.92-.18.31-.68-.37-.61-.79.25-.25-.36h-.49l-.24.42.24.43.61-.36-.48.48Zm-4.4-.61-.55-.12-.42.36.67.67.43-.42.73-.06.36-.74-.48-.61-.61,1.41Zm7.7-.61-.61-.31-.54.36,1.15.61Zm.68.06V49l.42.18-.06-.85Zm7.76.31.49.07.31-.37-1-.18Zm-4.89,0,.42.07.25-.37-.86-.12Zm27.07.19-.07.73.74-1Zm-34.76.31-.36.36.12.43Zm18.14.92.74-.12.31-.74Zm12.41.49.48.06.49-.55-.92-.86-.49.49Zm-30.49,0L309.3,49.6l-.55.12-.18.49.86-.19-.37.55.37.73.85.13Zm2.2-1,.13,1.29.31-.68Zm1.16.37-.06.73.55.42.79-1-.61-.42Zm26.33,0,.19.73.67.19Zm-23.64.48-.19-.36h-.36Zm16.61.74.13.67.24-1-.24-.67-1.22.36.24.74.19.12-.12.36Zm-2.08-.19h.37v-.67h-.37l-.18.36ZM329,50.76v.42l.73-.36-.31-.25Zm5.37.12.07.36.31.19-.07-.74Zm-26.2.8.36-1-.49.37Zm31.46-.92-.37.24v.49l.86-.06-.06-.49Zm-33.3,1.09-1.22-1-.13.79.61.49Zm18.08-.18.12-.49-.36-.31Zm3-.25.06.61-.49.42.13.67.61-.48-.19.42.12.49.49.12.31-.42-.61-.74.12-.42.19-.61.67-.06-.61-.19-.42-.06Zm12.83,1.47.85-1-.67-.12-.42.55Zm.54-.19.43.49.86-.8-.49-.49L341,52Zm-30.05.49.49.48.36-1.4-.67.18Zm-.67-.13.25.31.24-.79-.42.12Zm7.45-.48-.36.36.86-.25Zm-9.41.06-.24.31.18.42h.43l.24-.31Zm11.18.79.31.68,1.1-.61-.31-.68h-.74l-.36.55L319,53l-.55.18.25.92.48-.12Zm-9.89-.24-.13.67L310,53Zm30.55,1,.54-.06.19-.49-.31-.42-.31.67Zm-16.26-.73-.18.48-.13.31.25.31.8-.48-.19-.49Zm3.85,0-.42.06-.19.48.31.37.67-.55Zm-10.81.61.18.61.86-1-.67-.12Zm27.67,0,.31.67,1.16-.49-.31-.67-.73-.06Zm-18.33.42-.18-.49-.68-.06.61.31-.06.36Zm-16.55,1.53.55-.49L310,55l.31-.18.06-.36-.49-.13-.31.13h.31v.42l-1.22.31.13.73Zm17.6-.73-.61.12.24.12.43.37.67-.13-.55.13.55-.07.36.37-.12,1.59-.67.48-.31-.61-.25.43-.49-.13.25.61-.55-.36-.25.43.25.42.61-.12.31.18-.42.13.12.31-.36.24.12.86.37-.61.79.13.49-.61-.49-1,.49.49.86-.25.18-.8-.25-.36.49-.61-.36-.73-.43-.06.8-.86-.49-.67-.61-.31-.18.31-.49-.13-.42.43Zm-6-.31-.13-.55-.31.92Zm-2.2-.37.85.86-.18-.67ZM323.11,56l-.06.36.25.55.49.48.85-.79-.48-.49-.31.06.06-.48.06-.8-1.4.67Zm-15.45-.55-.31.86.55.61.85-.13Zm18.33.73.31.25.42-.61-.36-.25-.36.19Zm-5.93.36.49.74h.86l.36-.8-.42-.73Zm9.35.25.49-.06.18-.42Zm-7.27-.12-.18.48.67-.54Zm16.62.67.36.67.06-1.34Zm-12.35,0,.43.42-.25-1Zm-17.47.8.42.06-.79-.06.31.67.86-.06.06-.55-.61-.43-.25-.92-.42.49.18.55Zm16.8-.25.12-.86-.92,1.16Zm-6.66.36.61.12.8-.24-.8-.37-.55-.12.31-.61-.73.06-.12.92-.07.49Zm-12-.49.25.49h.54l.07-.92-.55-.06Zm.92-.12.06.49.42.18Zm-2.14,1-.43-.25.68,1,.54-.13.19-.61-.42-.42ZM301,58.46l-.86-.19-.55.67,1.71.31Zm28.22.86.68-.31.06-.74Zm14.54-.55.42.12.31-.25-.79-.31ZM310,59.07l.43.31.06-1-.42.18Zm11.79-.19.36-.06.06-.36Zm-3,.36.36.49.8-.67-.36-.49-.61.13Zm-14.05-.54-.36.18-.06.43.31.24Zm18.63,2.44.49-.37.36.37.55.31.61-.37-.36-.85-.61-.61-.37-.25-.67-.49-.31.43v.42l-.31.25.06.31.49.18ZM308.75,61h.37l.24-.31-.18-.31-.36-.06Zm9.47-.36.86.12-.42-.31Zm4.58.36-.42.36,1.1.36-.19-.54ZM327,62.18l.43-.19-.25-.31-.19-.61-.31.86Zm1.89-.61,1,.19-.19-.49-.55-.12Zm-21.75-.19h.67l-.36-.18Zm11.49.49.36.31.49-.12.06-.49-.8-.19Zm7.58-.12-.43.12-.06.31-.36.19.18.67.74.12.48-.55-.24-.67-.74.25Zm-3.55.31-.42-.07-.19.37.61.42.25-.36Zm-14,.12.55.19-.06-.31Zm9.66.36h.73l-.18-.36-.37.06Zm5.74-.06-.37.42-1.34.31.42.49.8-.36.36-.13ZM329,66.15l-.19.92.31.06-.31.13-.48.06.06.55.55.24.48-.48.74-.49-.13-1.34v-.36l-.31-.25-.25.42-.61-.55.68-.61.42-.31-.36-.48h-.31l.31-.19H330l-.31-.42-.67.48v.37l-.31-.13.31-.42-.43-.36.25-.37-.42.31-.61.19-.31,1,.31.61.48.49.25.31-.19.42-.42-.36.36,1,.06-.55.31.49V65.6Zm-19.61-2.87.61.54.31-.36-.13-.42-.48-.13Zm12.09.18-.12-.55-.19,1,.31.92.06-.31,1,.24-.43-.67.06-.61Zm-3.05.49.43.25,1.22-.43-.61-.42-.13-.36Zm25.29.18.67-.31.06-.73L343.27,63l-.06.73Zm-18.27-.36-.18-.42-.68-.06Zm.8.92.18-.31-.12-.31-.25-.67.19.67Zm-3.05,0,.55.06.31-.48-.37-.25-.12.12ZM306,64.13l-.79,1.1.67.06.36-.55ZM320.18,66l-.25-1.22-.42.42.12.61Zm.48-.68-.12-.31-.31-.06Zm1.29-.24v.73l.61.36Zm1.22.12-.8.36,1.47.92v-.86Zm1.53.61L325,66l.12-.24.31-.07v-.31l-.73.19Zm1,.8.49-.37.24-.12.55-.42-.31.06-.12.18-.43-.18-.06-.43-.36.31-.06.43Zm-6.6-.61-.42-.37-.49.19.49.49.31.24Zm20.47.85.37.74.06-1.41Zm-11.67.55-.31-.73-.86.18-.12.43-.92-.13-.06-.42-.67.36-.49.67.61-.18.06.55-.42.06-.31.73.48.61.55-1.47.19.37.73.18.19-.86.48.55.49-1.4v.36ZM319.75,67l-.54-.25-.49.36ZM306.49,67l-.55.61,1,1,.61-.61-.25-.86Zm16.19,1-.25-.36H322l.48.79ZM343,67.56l.19,1.22.42-.37-.06-.61Zm-39,1.09.67.36.73-.36-.06-.79Zm26.51,1.22.25-.73-.42.36.18-.42-1-1-.92.61-.06.36.48.31h.43l-.36-.18.36.06.31.42h.48l-.48.43ZM318.1,68.6l.25.36v-.73Zm3.67.8.42.48.13.49.55.18-.19-1,.06-.73-.61-.43-.61.31.19.43Zm5.31.73.92-.49.31.13-.12-1.1-.73-.12-.49.55.25.61-1,1,.8-.19Zm-27.55-.67-.12.48.42.37.55-.19.12-.49Zm29.88.67-.31.36.8-.31ZM307,71.65l.79.06.49-.61-.36-.73-.8-.06Zm12.95-1.34-.36.48.48-.18Zm-17.6.06-.12.79.36.61.36-.24L303,71l.06-.43ZM321,72.14l.43-.43-.13-.42,1.22.31-.61-.55-.67.12-.25-.79-.73.25-.12.31-.19.73.49.49Zm-20.59-1.35-.12-.36-.19.67Zm25.91,1.28-.25-.79-.31,1.34Zm-25,1.1.36.49.86-.07.36-.73-.49-.73-.92.67.19-.49Zm40.26-1-.13.31.25.31Zm-38.79,1.28.79-.31.13-.86Zm3.78-.49.36.07.25-.31-.12-.31Zm19,1.65.55-.31v-.61l-.67-.06-.19-1.16-.67.12-.25.61.43.55.67-.12-.36.67Zm1-.74.31-.42.61.36-.68-1.16-.06.13-.25,1-.36-.73v.73l.61.36Zm-26.21-.18.48-.19.07-.48-.37-.31Zm-1.41-.06.36.18.37-.61-.37-.25-.36.25Zm23.52.06.49-.19.12-.48-1,.31Zm1,.31.54.31.19-.31-.12-.31h-.37Zm82.84-14.54.42,2.63.19,2.38.31,1.28L407.18,67l-.07,1.22-.24,2.5-.49,2.38-.06,1-2.32.67-3.67-.18-2.14.31-2-.19-1.41.12-2.44-2.14.67-2.93-.24-1.59-.19-2.69-.19-.8.55-3.36-.25-2.69.07-2.5-.74-2.44-1.71-.42-1.47.12-.74,1.28-.24,2.75-.19,1.22L388,61l.25,2.57-.43,1.09.25,1.1L388,68.1l.48,1.29L388,72.81l-1.83,1.47-1.89.61-1.53.12h-2.88l-.92-.31-2.14-.12-1,.06-1.1-.36-.36-2.57-.36-1.16-.31-2-.25-1.47.73-3.48-.42-2.51.25-2.68.25-2.21-1.47-2.56-1.22-.86-2.2,1.83-.19,3.11-.06,1.16.31,1.89-.06,2.88-.37,2-.24,1.28.24,1.35V69.7l.13,1.53v2l-1.59,1.28-1.29-.31-2.38.43-3.73.42-1.15.31-2.63-.61-.92-.12-.61-1.35-.12-2.81-.19-.92.31-2.2.06-1.35.13-1.46-.13-.92.13-.86-.31-2.5.24-1.47-.12-1.1L355,56.5l-.49-2.38.13-1.35-.13-2.2.25-1.41V46.79l.12-1,.37-2.2,1-.12,1.34-.25,3.24-.43,1.16.31,1.22-.12h2.44l.79-.12,1.65,2,.12.8.06,1,.8-1.1,2-1.65,2.75-1,1.41-.68,1.47-.06L378.4,42l2.51,1,.85.31,2.08,1.28,1.1.61.86.92.48.86.67-1.4.86-.68,2.63-.73,1.22-.61,1.28-.42,1.34-.61,2.51-.13,4,.55.79,1,1.1,1.1.92.86.67.86.73.79,1.16,2.27.36,2.38.68,1.29.18,2.44-1.09,2.26ZM395.94,43.55l-.43.12-.18.43h1l.13.18.42.13.31-.31,1.1-.8-.8-.36-.61-.31-.12.67-.31.13Zm-2-.36-.24.67,1.4-.25-.42-.55Zm-29.33.12-.92.25-.12.49.36.61,1-.74ZM374.19,45l.42.12-.55-.49Zm.54,1.09-.67-.12-.25.79.61.61.68-.12-.13.55.55.42-.55-.25-.67.43.67.18-.36.07-.25.54,1.22-.18-.36-.67.49-.07.79-1.15.43-.19.06-.67-.8-.55.36-.36-.12-.49-.49-.12-.12.48-.42.13.36.25-.67.24.18.49Zm15.83-.92-.79-.31-.55,1.41.86.31.61-.55Zm-7.81-.06-.68-.19-.48.49ZM373,45l-.55.06.25.42h.61l-.31-.18Zm5.62.48L378,45l-.73.36,1.22.79.06,1,.31-.67-.25-.37Zm4.71,1.41.42-.74-.42-.79-1.29.79.43.74Zm-12,1,.74-.06.06.31,1-1,.55-.07-.49-.92L373,45.5l-.31.25-.92-.31-.25.67.48.55.8.19-.31-.06-.67.67-.36.06Zm26.4-1.34.73.06.42-.55-1-.18-1.16-.43-.31.67.49.55Zm-32.81,0,.25-.43-.25-.36-.73.43.25.42Zm2.63-.61-.36-.19-.07.86.37-.25Zm10.26.42-.48.06-.06.68-.37.12-.12.42.73-.31.68-.61Zm15.15,0-.42.25h.85Zm9.28.06-.42.13-.12.36.79-.19Zm-22.72.43.42.06-.61-.42Zm23.1.42.31-.73-.37.25ZM382.13,47l-.13-.31-.48.13.06.31Zm-16,.31-.12-.48-.31.06Zm14.73.19.24-.55-1.22.19.37.48Zm8,1-.25-.42.67-.25-.73-.12v-.31l-.74-.43.43.92-.31-.24-.67.12.31,1.16.42.12-.42.49,1-.36.31.18Zm-10.45-.06.06-.31.55-.25-.37-.73-.79-.06-.43.67.31.73ZM370,47.21l.25.61.67.06.42-.55Zm13.08.06-.43.31,1-.12Zm-9,1.35.19-.74-.31.36Zm25-.68-1.59.19.49.61.79-.06Zm-20.1.19-.31.8.49.67.86-.13L379.87,48Zm8.07.36-.74-.48-.85,1.22.73.48.73-.36Zm-18.21,1.22.92-.18.31-.68-.36-.61-.8.25-.24-.36h-.49l-.25.42.25.43.61-.36-.49.48Zm-4.4-.61-.55-.12-.42.36.67.67.42-.42.74-.06.36-.74-.49-.61-.61,1.41Zm7.7-.61-.61-.31-.55.36,1.16.61Zm.67.06V49l.43.18-.07-.85Zm7.76.31.48.07.31-.37-1-.18Zm-4.89,0,.42.07.25-.37-.86-.12Zm27.06.19-.06.73.73-1ZM368,49.35l-.36.36.13.43Zm18.15.92.73-.12.31-.74Zm12.4.49.49.06.49-.55-.92-.86-.49.49Zm-30.48,0-1.47-1.16-.55.12-.19.49.86-.19-.36.55.36.73.86.13Zm2.2-1,.12,1.29.31-.68Zm1.16.37-.07.73.55.42.8-1-.61-.42Zm26.33,0,.18.73.68.19Zm-23.65.48-.18-.36h-.36Zm16.62.74.12.67.25-1-.25-.67-1.22.36.25.74.19.12-.13.36Zm-2.08-.19H389v-.67h-.36l-.19.36Zm-2.32-.42v.42l.74-.36-.31-.25Zm5.38.12.06.36.31.19-.06-.74Zm-26.21.8.36-1-.48.37ZM397,50.76l-.36.24v.49l.86-.06-.06-.49Zm-33.3,1.09-1.22-1-.12.79.61.49Zm18.08-.18.13-.49-.36-.31Zm3-.25.06.61-.48.42.12.67.61-.48-.18.42.12.49.49.12.31-.42-.61-.74.12-.42.19-.61.67-.06-.61-.19-.43-.06Zm12.83,1.47.86-1-.67-.12-.43.55Zm.55-.19.42.49.86-.8-.48-.49-.61.13Zm-30.05.49.48.48.36-1.4-.67.18Zm-.68-.13.25.31.25-.79-.42.12Zm7.46-.48-.36.36.85-.25Zm-9.41.06-.25.31.19.42h.42l.25-.31Zm11.18.79.31.68,1.09-.61-.31-.68H377l-.36.55-.37-.42-.54.18.24.92.49-.12Zm-9.9-.24-.12.67.73-.86Zm30.55,1,.55-.06.19-.49-.31-.42-.31.67ZM381,53.51l-.19.48-.12.31.25.31.79-.48-.18-.49Zm3.85,0-.43.06-.18.48.31.37.67-.55Zm-10.82.61.19.61.86-1-.68-.12Zm27.68,0,.31.67,1.16-.49-.31-.67-.74-.06Zm-18.33.42-.19-.49-.67-.06.61.31-.06.36Zm-16.55,1.53.54-.49-.06-.61.31-.18.06-.36-.48-.13-.31.13h.31v.42l-1.22.31.12.73Zm17.59-.73-.61.12.25.12.42.37.68-.13-.55.13.55-.07.36.37-.13,1.59-.67.48-.31-.61-.25.43-.48-.13.25.61-.55-.36-.25.43.25.42L384,59l.31.18-.43.13.13.31-.36.24.12.86.36-.61.8.13.48-.61-.48-1,.48.49.86-.25.19-.8-.25-.36.49-.61-.37-.73-.42-.06.8-.86-.49-.67-.61-.31-.19.31-.48-.13-.43.43Zm-6-.31-.12-.55-.31.92Zm-2.2-.37.86.86-.19-.67ZM380.42,56l-.06.36.25.55.48.48.86-.79-.49-.49-.31.06.07-.48.06-.8-1.41.67ZM365,55.4l-.31.86.55.61.86-.13Zm18.33.73.31.25.43-.61-.36-.25-.37.19Zm-5.92.36.49.74h.85l.37-.8-.43-.73Zm9.35.25.48-.06.19-.42Zm-7.27-.12-.19.48.67-.54Zm16.61.67.36.67.07-1.34Zm-12.34,0,.42.42-.25-1Zm-17.47.8.42.06-.8-.06.31.67.86-.06.06-.55-.61-.43-.24-.92-.43.49.19.55Zm16.8-.25.12-.86-.92,1.16Zm-6.66.36.61.12.79-.24-.79-.37-.55-.12.31-.61L376,57l-.13.92-.06.49Zm-12-.49.25.49h.55l.06-.92-.55-.06Zm.92-.12.07.49.42.18Zm-2.14,1-.42-.25.67,1,.55-.13.19-.61-.43-.42Zm-4.82-.12-.86-.19-.55.67,1.71.31Zm28.22.86.67-.31.06-.74Zm14.54-.55.42.12.31-.25-.8-.31Zm-33.79.31.42.31.07-1-.43.18Zm11.79-.19.36-.06.06-.36Zm-3,.36.36.49.8-.67-.37-.49-.61.13ZM362,58.7l-.36.18-.07.43.31.24Zm18.63,2.44.48-.37.37.37.54.31.61-.37-.36-.85-.61-.61-.36-.25-.67-.49-.31.43v.42l-.31.25.06.31.49.18ZM366.06,61h.36l.25-.31-.19-.31-.36-.06Zm9.47-.36.86.12-.43-.31Zm4.58.36-.42.36,1.09.36-.18-.54Zm4.22,1.22.42-.19-.25-.31-.18-.61-.31.86Zm1.89-.61,1,.19-.18-.49-.55-.12Zm-21.75-.19h.67l-.36-.18Zm11.48.49.37.31.48-.12.06-.49-.79-.19Zm7.58-.12-.42.12-.06.31-.37.19.19.67.73.12.49-.55-.25-.67-.73.25Zm-3.54.31-.43-.07-.18.37.61.42.24-.36Zm-14,.12.55.19-.07-.31Zm9.65.36h.74l-.19-.36-.36.06Zm5.74-.06-.36.42-1.34.31.42.49.8-.36.36-.13Zm4.95,3.67-.18.92.31.06-.31.13-.49.06.06.55.55.24.49-.48.73-.49-.12-1.34v-.36l-.31-.25-.25.42-.61-.55.67-.61.43-.31-.37-.48h-.31l.31-.19h.31L387,63l-.67.48v.37l-.31-.13.31-.42-.42-.36.25-.37-.43.31-.61.19-.31,1,.31.61.49.49.25.31-.19.42-.42-.36.36,1,.06-.55.31.49V65.6Zm-19.61-2.87.61.54.31-.36-.12-.42-.49-.13Zm12.1.18-.13-.55-.18,1,.31.92.06-.31,1,.24-.42-.67.06-.61Zm-3.05.49.42.25,1.22-.43-.61-.42-.12-.36Zm25.29.18.67-.31.06-.73L400.58,63l-.06.73Zm-18.27-.36-.19-.42-.67-.06Zm.79.92.19-.31-.12-.31-.25-.67.18.67Zm-3.05,0,.55.06.31-.48L381,64l-.12.12Zm-17.23-.55-.8,1.1.68.06.36-.55ZM377.48,66l-.24-1.22-.43.42.13.61Zm.49-.68-.12-.31-.31-.06Zm1.28-.24v.73l.61.36Zm1.22.12-.79.36,1.46.92v-.86Zm1.53.61.31.12.13-.24.31-.07v-.31l-.74.19Zm1,.8.48-.37.25-.12.55-.42-.31.06-.13.18-.42-.18-.06-.43-.36.31-.07.43Zm-6.6-.61-.42-.37-.49.19.49.49.31.24Zm20.47.85.36.74.06-1.41Zm-11.67.55-.31-.73-.86.18-.12.43-.92-.13-.07-.42-.67.36-.48.67.61-.18.06.55-.43.06-.31.73.49.61.55-1.47.18.37.74.18.18-.86.49.55.49-1.4v.36ZM377.06,67l-.55-.25-.48.36ZM363.8,67l-.55.61,1,1,.61-.61-.25-.86Zm16.19,1-.25-.36h-.49l.49.79Zm20.28-.36.19,1.22.42-.37-.06-.61Zm-39,1.09.67.36.74-.36-.06-.79Zm26.52,1.22.25-.73-.43.36.19-.42-1-1-.92.61-.07.36.49.31h.42l-.36-.18.36.06.31.42h.49l-.49.43ZM375.41,68.6l.24.36v-.73Zm3.67.8.42.48.12.49.55.18-.18-1,.06-.73-.61-.43-.61.31.18.43Zm5.31.73.92-.49.31.13-.12-1.1-.74-.12-.48.55.24.61-1,1,.8-.19Zm-27.55-.67-.13.48.43.37.55-.19.12-.49Zm29.88.67-.31.36.79-.31Zm-22.43,1.53.8.06.48-.61-.36-.73-.79-.06Zm13-1.34-.37.48.49-.18Zm-17.6.06-.12.79.36.61.36-.24.06-.55.06-.43Zm18.63,1.77.42-.43-.12-.42,1.22.31L379.2,71l-.67.12-.25-.79-.73.25-.13.31-.18.73.48.49ZM357.7,70.79l-.13-.36-.18.67Zm25.9,1.28-.24-.79L383,72.63Zm-25,1.1.37.49.85-.07.37-.73-.49-.73-.92.67.19-.49Zm40.26-1-.12.31.25.31ZM360,73.48l.8-.31.12-.86ZM363.8,73l.36.07.25-.31-.13-.31Zm19,1.65.55-.31v-.61l-.68-.06-.18-1.16-.67.12-.25.61.42.55.67-.12-.36.67Zm1-.74.31-.42.61.36-.67-1.16-.06.13-.25,1-.36-.73v.73l.61.36Zm-26.21-.18.49-.19.06-.48-.36-.31Zm-1.4-.06.36.18.36-.61-.36-.25-.36.25Zm23.52.06.48-.19.13-.48-1,.31Zm1,.31.55.31.19-.31-.13-.31H381Zm35.13-34.21-2-.36-1-.37-.79-1.34.06-1.71.12-1.22.31-2.14.31-2.32.36-1,1.77-.54,1,.12.92-.12,5.38.24,1.89-.36,1.35.74.73,2.07-.49,1.35.25,3.91v1.22l-.42,1.34-3.18.42-1.09-.31-1.28.13-1.41.06Zm-2.08-10.45-.61.48-.06.86.31.73.13-.85,1-.31-.06-.61Zm7.4,1-1.47.49-.61-.61-.55.61.12.31-.24.36-.43-.36.13.36h.31l.06.18-.19,1,.06.61-.48.61.42-.19-.18.36.36.67.31-.48L419,35l-.36.61.55.31.67,1-.31.25.31.67.31.36.49.43.73-.06.49-.07-.36-.92.79-.24.49-.43-.55-.18.61-.31-.8-.49.43-.25.31-.18.42.06.36.12.25-.36.36.25.37-.25-.19-.67-.36-.55-.55-.06-.12-.74.31-.42H424l.06-1-.61-.07-.55.55-.12-.55.54-.24v-.43l.74-.73.06-.61-.55-.36-.55.79-.42.13-.42-.07.54.86-.48.25h-.86l-.06.31-.49-.19-.61.25-.25.31.07.31.61-.12.85.86-1.15.42.54.31.19.67-.8-.55.07.37-.74-.49-.42.42v.25l-.19-.36.19-.86.18-.61-.06-.55.31.19-.36-.49.42.07.61-.49h.43l.73-.25.13-.36.36-.36-.19-.49Zm-5.63-.86-.12.49-.19.55.8-.68-.06-.06-.13-.31Zm2.94.25-.43.31v.55L419,30Zm-1,.25h-.92l-.42-.06-.49.73.37.73.54.13.07.48-.25.37h.36l.8-.25v-.61l.06-.67.48-.13-.31-.12Zm-2.44.79.07-.48L415,30l-.42.67Zm9,1.1.55-1.16-.61.43Zm-2.2-.06h-.31l-.06-.25Zm-7.76.18.07-.31-.37.37Zm-.73.19v.67l.73.19.49-.49-.19-.73-.61.67Zm7.39.8-.55-.07.31-.48-.48-.06-.31.36-.13.42.37.31.31-.36Zm-5.25.48.61.36.06-1.34-.61.31Zm-1,.06.54-.18.07-.55Zm2.26.07.49.61-.8.06-.06.42-.92.06.06.86.36.13.36.42.37-.06v-.36l.42-.25-.06-.43.31-.12.06.42.49.25.42-.36-.67-.49-.13-.67.07.31-.07-.92v-.31H417Zm-3.48.36.48.67-.06-.49Zm.73,1,1.22.12-.25-.54-.55-.07Zm6.23.86-.36.42-.67-.36.49-.36-.25-.74.73.19.36-.19.13.31-.43.13.68.06.12.25.31.42-.86.36Zm-6-.06.79.06-.36-.25Zm-.92-.13-.36.13.18.61Zm5.37.31-.12.74.31-.31Zm-.92.25-.73-.12.49.36-.19.73.49.49.73-.19.06-.31.43.19-.31-.55-.86-.25Zm1.29.92h.42l-.06-.8-.31-.24-.13.31-.18.42Zm-2.94-.06.42,1.53.55-.61-.25-.74Zm-2.2.61.42-.06.13-.43Zm11,.25-.36-.25-.13-.31-.55.18-.42-.24-.12.31-.55-.31.48.73-.42.19.12.54.92.37.49-.86.42.12-.24.74.73-.68-.25-.48Zm-5.19.67V38.3h.31l-.36-.55-.68-.06-.31.61-.06.31-1.16-.74v.86l.68.49.79-.36Zm-5-.55.55.61.86-.25ZM426.6,64.87l-.06,1,.19,1.22L426,69.45l-.18,4.76-2.14.61-1.16-.06-1.16-.12-4.46.42L415,74.82l-1.28-.12-1-.25-.61-1.34V69.63l-.13-1,.31-1.16-.12-1.4-.06-1.29-.25-2.32.36-2.38-.25-2.44.13-1.41-.13-2.14.25-3.29-.06-5.13.36-2.44,1.22-.31,1.22.06H416l2.38.19,1.35-.19,2.69.06,2.2.19,1.34.42.13,2,.31.92L426.24,48l.06,2.5-.12,2.5.25,1.53.18,1-.55,2.08.19,1.16L426,60l.31,1.1-.12,2.38Zm-6.78-20-.31-.18.25.48Zm-.92.31-.61-.06-.36.42,1.16.25Zm1.53.55.36.19-.42-.61Zm1.41.49-.31-.31-.43.06.61.61Zm-3.24,1.89-.12.55-.19.42.36.55.67-.06.43.06L419,49l-.36-.55Zm-3.91,2.2.25-.8-.31.31Zm4.83,1V50.21l-.49.31v.55Zm-5.13,1,.92-.8,1.47-.67-.67-.49-.8.37-.36.48-.42.13-.31-.19-.25-.49-.25-.42.06.61-.36.25-.31-.06-.06.42-.13.61.55.12.49-.31.42.43-.18.55.42.42.61-.19Zm2.14-1.16-.55,1.1.61-.37Zm6.11,0-.31.19-.06.36.31.18Zm-1.89.49-.61.06v.42l.31.74.49.36.67-.49-.13-.79Zm-2.5,1.15.12-.36-.48.43Zm-5.44.49-.31.55.31.55.49-1,.31-.12.06-.43-.36-.31-.43.61.31.25Zm3.05-.67-.12.31.42-.31Zm3.36.25-.42.31h.92Zm-5.38,1.65.55.06.36-.42-.18-.49-.92.31Zm1.9-.49-.07.49.49-.67Zm2,1.1-.86-1,.13.73Zm6.05,0,.36-1-.48.36Zm-9.78,1-.55-.48.13.42Zm3.85-.25-.43-.12-.31.36Zm-4.89.74.18.73.36-1.22Zm6.17.48-.49-.42.13.36Zm-6.3,1.47.43.61-.07-1.34ZM424.65,58l-.13.31.31.31Zm-9,1.65.43-.19v-.42l-.74-.13v.43Zm2.63.06.55.25.55-.31-1-.61-.67-.13Zm-.61,1.47.31.36.42-.06Zm-3.3.55-.55.12.92.31Zm9.1.06-.36.55,1-.49Zm-4.77,1h.37l.06-.61-.36-.06-.19.31Zm2.82,1.53,1.15-.92-.48-.18.06-.43-.49-.48-.61.24-.18.61.79.19-.31.25Zm1.09,1-.25-.74-.31-.06.8-.19L422,64.2l-.86.85.25.74Zm-9.89.18.55.25.54-.31-.61-.92-.48.36Zm7.76,2.08.49.25.42-.36-.06-.55Zm3.18,2,.42.37.25-1-.55.19Zm22.17-3.84L446.1,67,446,69.27l.31,2.75-.8,2.2-1.4.37-4.65.12-2.56-.25-.8-.12-1.28.36-1.4.31-1.22-.8-.43-.85L432,71l-.36-2.87.18-3.67-.24-1.22L431.8,61l-.12-1.09.48-2.63-.36-2.75-.31-1.41.36-1,.13-1.34.18-.86-.36-.8-.48-1.28.06-1.09.36-2.88.06-2.44.13-1.34-.25-1.35.06-.92.06-1,.25-1.47L431.62,33l1.83-1.59,1.15-.42h1.29l1.09-.13,2.5.86,2.38-.55,3.67.92.36,1.1.55,3.48L446,38.17l-.31,2.32-.13.92.61,3.78L446,48.74l.12,3.3-.36,1.4.31,2.69.06,1.22.06,1.59-.25,2,.37,3.78ZM433.63,32.74l-.73-.13-.49.55.92.8.49-.49Zm4.1,1.15.06-.31-.36.37Zm6.53,2.57-.49-.67-.73.12-.36.73.48.61Zm.61.92-.36.31v.48l.48.19.31-.73Zm-1.34.06-.25.8.55.67Zm.73,2.14h.61l.31-.55-.31-.55Zm-5.19-.25-.86-.42v.48l.43.25Zm5,.13-.67-.13-.42.55.31.61,1-.42Zm-6.53.61-.36-.55-.55,1.09h.61Zm5.38-.55-.74.36-.31.61,1,.55.31-.61-.61-.55Zm-1.83,2.2.31-.19-.13-.73-.73-.25L440,41l.49.55Zm-4.46-1.1.06.37.31.12.31-.19Zm3.05.43.55-.25-1-.06Zm4,.48,1.16.55.31-.67-.43-.61-.73.06ZM442.24,41l-.18.42.86-.12-.25-.31Zm-5,1.71.8-.24.18-.8-.61-.55-.31.25-.31.49-.31.31Zm-3,0-.31.61.19.31.67.68.06-.8-.42-.36.31-.06.25.31.12-.31.42.12.61-.61-1.59-.49.13.61Zm4.46.8.61-.12.18-.61-.42-.43Zm2.87-.36.67.31-.73-1ZM436,42.82l-.31.61.36.54Zm-.86,1.34-.31.36L435,45l.67-.74Zm3.05,1.77v-.49h-.79l-.07.49.43.25Zm1.59.06.55.25.43-.31-.68.06Zm2.32.73.36-.31-.12-.48Zm-.73-.42H441l.61.31Zm-4.28.49h-.55l-.31.42.25.49H437v-.07Zm-2.88.48.06.49.43.25-.13-1Zm7.15.55-.25-.61-.67-.06Zm-5.74-.31-.67-.25-.19.36L435,48l.42-.07-.12.68.31-.43Zm-1.83-.12-.49.06.8.31Zm-1.1.42.13-.42-.61.54Zm7.7-.25-.42.06-.55.61.31.43L440,49l-.55.18-.12.61.49.49.24-1.16.55.74.67-.55-.36-.92Zm-6.47,1.1-.18-.61-.92,1,.67.12Zm5.07-.25-.13-.36-1.22.36.19.67.19.49.06.48.48.13.43-.13.31-.42.18-.67Zm-1.77.86.49-.25-.43.19.31-.31-.12-.61-.8,1.15Zm-1.89-.36-.43-.19-.42.31.12.49ZM433.45,50l.31.36.36-.06-.43-.73Zm3.29.92-.48.49v.48l.55.37v-.37l.42.07.25.31.06-.92-.25-.43.36-.55-.31-.61h-.67Zm2.94-.25-.8-.54.25.48Zm4,.37.49.36.24-.31-.18-.31-.36-.06Zm-9.78.61-.67-.86.06.61Zm7.52.31.48.06.06-.55-.42-.36L441,52ZM438,51.8l-.12.36.31.31.25-.79Zm-2.44.31L436,52l-.92-.25.06.48-.18.31-.13.49.36.31.49-.12.42-1.1-.48.61-.13-.31Zm4-.25.36.49h-1.28l.31.55h.67l.48-.43.13-.36-.31-.31Zm-6.48.92.31.25.61-.19.19-.67L433,51.91Zm4.4.06-.43-.61.19,1.29Zm3.3-.06-.37-.12-.36.25.86.31Zm-1.29.8.07.61,1.4-.13-.12-.79-.67-.31-.61.42-.49-.42-.73.18-.19.8Zm4,.48.54.37.61-.31v-.68Zm-7.7.55.68.55.79-.31.19-.42.48-.13.13-.48-.36-.37-.49.13.12.42-1.4-.18ZM434,53.93l-.24-.49-.31.19.06.31Zm5.63.86.25-.43-1,.07.25.42Zm-4.89.25-.13-.31-.36.48Zm.31.18.36.31.49-.18.06-.49-.86-.12Zm5.68-.18-.61.31.49.31.67.36v-.67Zm-3.05,2.2-.31.36-.24.31,1.4.36.55-.31.19.31.85-.61.25.31.55-.06-.49-.36.13-.86-.49-.61-.12-.8-.49.31-.67.92-.06.68-.49.12-.25.19v-.37ZM434.12,56l-.19-.49-1.28.49.31.73.55.13.48.54.61-.54-.18-.8Zm2.75,0-.92-.25.36.42Zm.55,1.16-.31.12-.07.31Zm-4,1.4.18-.79-.31.36Zm10.32.43v.42l1.16.36-.12-.61-.55-.42-.12-.61-.19-.31h-.36l-.19.36.55-.06Zm-4.09.54.55.55,1-1-.55-.55-.79.19Zm-.92-.18.42.18-.67-.85-.73-.13-.49.49.92.86ZM435,59.07l.36-.06-.61-.25Zm7.7.86.31-.13.06-.36-.31-.25Zm-.92.67.86-1.1-.74-.06-.42.55.25.61-.36-.13-.68.55,1.47-.25Zm-2.2.31-.19-.55-.55-.19.43,1.35.06-.31Zm-6.54-.06-.42-.31-.06.54Zm11.06-.13-.68.55.55,1.16.8-.43v-.85Zm-7.52.19.19.86.12-.49Zm6.78.86-.06-.49-.86.25-.55-.25-1,.06.25.43.42-.07.49.68.36-.25.55.73L443,62.3l-.31-.42.31.19Zm-5.25.61-.12.31.12.24,1.34-.31L439,62Zm-3.36.73h.49l.24-.42-.24-.43h-.49Zm-.8,1.41.49.06.36.18.67-.42-1.46-.67-.68.06-.48-1.34-.19.85.67.55-.31.19v.55Zm7.46-1.65-.43-.12.55.48Zm3.61,1.77.54-.19-.42-.31.73-.73-.48-.49-.67.19-.07.31-.12-.12-.67,1,.73-.13Zm-.37,0-1-.12-.42-.13.12-.79.67.12-.18-.42-.61.06-.61-.06-.37.73-.31.06.37.36.12.61.61.31-.31-.79.31.12.49.25.12.36v.36l.8.31.06-.36.36-.31Zm-6.72-1,.19-.36-.61.36Zm2.14,1.22-.31-.43.92.31.92.49L442,65l-.07-.42-.54-.42.31-.25-.49-.25-.49.25-.31-.13-.67.49-.42-.06-.06-.49h-.55l-.06-.31-.37-.12-.18,1-.06.55.48.36.55-.31.61.31-.31.43L439,65.3l-.86.13-.19.48-.48.55.61-.31.36-.06v1l.19-.31.24-.79.25.67-.48.42,1,.31h.55l.42-.42-.42-.74.48-.67-.73-.36Zm-4.34-.49.55-.06-.61-.25Zm3.05.31.31-.31-.25.49Zm-4.7.13-.43.42.49-.12Zm-1.1.48-.18.36-.19.74.55.55,1-1-.55-.54h-.31l.25-.55Zm2.5,1.28.31-.31.49.13.61-.55-.19-.86h-1.15l-.37.13.19.54.25.55Zm1.9-.48.12-1-.31.42Zm4.45,1.28.06.31.61.25.55.25.55-.13.19-.48-.37-.43-.42.06-.31-.36-.31-.73-.42.18.36-.42-.61.19-.06.36-.13.79ZM437,66l-.31.19.61.36v-.36Zm6.78.37-.79-.07,1.09.8Zm-10.5,1,.92,1,.61-.55-.19-.79-.79-.19Zm10.88.18.73.86.19-.48-.37-.43Zm-5.93.92.19-.48-1.1.18.36.43Zm2.38,2.51-.67-.19.06-.42.67-.31-.36-.25-.06-.61-.74-.31-.48-.13.31-.18v-.36l-.86.24v1.1l-.42-.19-.43-.12.36.42h.49l.55-.31V69l.36.13-.42,1,.31.12.06.31.61.19-.31.19Zm1.34-2-.12-.73-.12.31Zm.74.36H443l-.67.13.12.25,1.22.67v-.74l-.49-.24h.74l.06-.74-.61-.42-.67.42-.31.13.31.06Zm-9.1-.67.19.55.54.06Zm1.53,0-.61.43,1.28-.13Zm9,0,.31,1,.12-.61Zm-11.43,1,.13.61.36.43.12.36L434,71l-.06-1.22-.36-.55-.19-.42h-.54l-.31.48Zm8.37.25.61-.06.24-.55-1-.42-.25.55Zm.24.67-.36-.42.06.31Zm-3.23-.31-.61.31h.36Zm4.34,1.16.31-.12.06.31.43-.55-.37-.12-.12-.43-.49-.18-.36.92Zm1.53-.92-.42.06-.13.43Zm-5.8.25-.8-.12-.18,1.4.79.06.49-.61Zm3.11.55.55.06-.8-.61Zm3.18.92.06-.8-.74-.42Zm-3.36.92.06-.55.92-.31-.86.06.06-.86-.61-.12-.36.49.25.61.42.12L440,73l.49.37Zm1.71-1.1.36.31.43-.61-.36-.25-.37.13Zm-8.31,1,.36.13.43-.31-.07-.55-.92.61-.18-.61-.8-.19-.48.55.18.8.36-.13-.06.43.13.61.54.18.49-.36-.06-.36.25-.42Zm3.73-.18-.79.06-.37.67,1.6-.06Zm3.49,0-.37.73.43-.25ZM439,74l.61.06.61-.06-.74-1-.12.67-.92-.06Zm5.13-.13.48-.18.13-.55-1-.12-.06.54Zm-9.29-.12h.31l.13-.31Z"/></g></g></svg>